<?xml version="1.0" encoding="iso-8859-1"?>
<!-- Uploaded to: SVG Repo, www.svgrepo.com, Generator: SVG Repo Mixer Tools -->
<svg fill="#ffffff" height="800px" width="800px" version="1.1" id="Layer_1" xmlns="http://www.w3.org/2000/svg" xmlns:xlink="http://www.w3.org/1999/xlink" 
	 viewBox="0 0 512 512" xml:space="preserve">
<g>
	<g>
		<path d="M282.95,107.791V0h-53.9v107.789l0.005,0.001c0,68.151-134.742,40.42-134.737,215.578l-0.005-0.001v148.212
			c0,22.232,18.19,40.421,40.421,40.421h242.532c22.232,0,40.421-18.189,40.421-40.421V323.368
			C417.692,148.211,282.95,175.942,282.95,107.791z M370.524,464.842H141.471V296.421c0-33.432,27.199-60.632,60.632-60.632h107.79
			c33.432,0,60.632,27.199,60.632,60.632V464.842z"/>
	</g>
</g>
<g>
	<g>
		<path d="M309.892,276.211H202.103c-11.144,0-20.211,9.066-20.211,20.211v128h148.211v-128
			C330.103,285.277,321.037,276.211,309.892,276.211z M255.997,377.263c-14.859,0-26.947-12.089-26.947-26.947
			c0-14.859,12.089-26.947,26.947-26.947c14.859,0,26.947,12.089,26.947,26.947C282.945,365.175,270.856,377.263,255.997,377.263z"
			/>
	</g>
</g>
</svg>