<?xml version="1.0" encoding="iso-8859-1"?>
<!-- Uploaded to: SVG Repo, www.svgrepo.com, Generator: SVG Repo Mixer Tools -->
<svg fill="#ffffff" height="800px" width="800px" version="1.1" id="Layer_1" xmlns="http://www.w3.org/2000/svg" xmlns:xlink="http://www.w3.org/1999/xlink" 
	 viewBox="0 0 512 512" xml:space="preserve">
<g>
	<g>
		<path d="M340.115,213.061l-7.302-11.521c-11.096-17.507-18.05-37.304-20.466-58.011h13.487v-89.59h-17.616L315.505,0H196.494
			l7.286,53.939h-17.616v89.59h13.487c-2.415,20.706-9.37,40.503-20.464,58.011l-7.303,11.521
			c-15.51,24.472-23.708,52.935-23.708,82.311V512h215.649V295.371C363.823,265.996,355.626,237.533,340.115,213.061z
			 M277.301,33.391l-2.776,20.548h-37.051l-2.775-20.548H277.301z M219.555,87.33h72.889v21.585h-72.889V87.33z M330.434,478.609
			h-0.002H181.567V295.371c0-23.036,6.404-45.318,18.521-64.435l7.303-11.521c14.702-23.198,23.524-49.597,25.919-77.107h45.381
			c2.395,27.511,11.217,53.91,25.919,77.107l7.302,11.521c12.118,19.119,18.522,41.4,18.522,64.435V478.609z"/>
	</g>
</g>
<g>
	<g>
		<path d="M198.9,310.934v114.198h114.198V310.934H198.9z M279.707,391.74h-47.416v-47.416h47.416V391.74z"/>
	</g>
</g>
</svg>