<?xml version="1.0" encoding="iso-8859-1"?>
<!-- Uploaded to: SVG Repo, www.svgrepo.com, Generator: SVG Repo Mixer Tools -->
<!DOCTYPE svg PUBLIC "-//W3C//DTD SVG 1.1//EN" "http://www.w3.org/Graphics/SVG/1.1/DTD/svg11.dtd">
<svg fill="#ffffff" height="800px" width="800px" version="1.1" id="Capa_1" xmlns="http://www.w3.org/2000/svg" xmlns:xlink="http://www.w3.org/1999/xlink" 
	 viewBox="0 0 58.062 58.062" xml:space="preserve">
<g>
	<path d="M57.432,24.577c-0.848-1.35-2.35-2.106-3.911-1.981c0.097-1.217-0.346-2.432-1.214-3.3c-0.868-0.869-2.075-1.316-3.3-1.214
		c0.097-1.217-0.346-2.432-1.214-3.3c-0.867-0.869-2.076-1.31-3.3-1.215c0.097-1.217-0.346-2.431-1.214-3.301
		c-0.87-0.868-2.092-1.307-3.301-1.213c0.097-1.218-0.346-2.432-1.214-3.3s-2.075-1.312-3.3-1.214
		c0.124-1.554-0.631-3.063-1.982-3.911c-1.346-0.846-3.081-0.837-4.419,0.018c-1.35,0.861-2.083,2.335-1.956,3.893
		c-1.229-0.106-2.418,0.335-3.3,1.215c-0.879,0.881-1.313,2.069-1.214,3.299c-1.219-0.096-2.434,0.348-3.299,1.215
		c-0.867,0.867-1.312,2.085-1.215,3.3c-1.213-0.103-2.433,0.348-3.299,1.214c-0.867,0.867-1.311,2.084-1.215,3.301
		c-1.217-0.099-2.432,0.348-3.301,1.214c-0.879,0.881-1.313,2.069-1.214,3.299c-1.215-0.088-2.434,0.349-3.299,1.215
		c-0.867,0.867-1.312,2.085-1.215,3.3c-1.568-0.132-3.05,0.614-3.909,1.981c-0.84,1.335-0.84,3.061,0.001,4.396
		c0.86,1.368,2.339,2.109,3.908,1.98c-0.096,1.218,0.349,2.434,1.215,3.299c0.867,0.867,2.087,1.306,3.3,1.215
		c-0.097,1.217,0.347,2.433,1.214,3.3s2.084,1.307,3.3,1.214c-0.096,1.216,0.348,2.433,1.214,3.3c0.866,0.866,2.081,1.301,3.3,1.215
		c-0.096,1.217,0.348,2.434,1.215,3.299c0.866,0.866,2.074,1.31,3.299,1.215c-0.127,1.558,0.604,3.03,1.953,3.892
		c0.676,0.432,1.452,0.648,2.228,0.647c0.764,0,1.527-0.209,2.195-0.629c1.35-0.848,2.105-2.358,1.981-3.91
		c1.221,0.095,2.431-0.347,3.3-1.214c0.868-0.868,1.311-2.083,1.214-3.301c1.225,0.093,2.432-0.346,3.3-1.214s1.311-2.083,1.214-3.3
		c1.211,0.094,2.432-0.345,3.302-1.214c0.867-0.869,1.31-2.083,1.213-3.3c1.222,0.089,2.431-0.348,3.3-1.214
		c0.868-0.868,1.311-2.083,1.214-3.301c1.225,0.098,2.432-0.346,3.3-1.214s1.311-2.083,1.214-3.3
		c1.547,0.123,3.063-0.632,3.911-1.981C58.271,27.636,58.271,25.912,57.432,24.577z M55.739,27.906
		c-0.485,0.772-1.333,1.172-2.217,1.034c-0.564-0.087-1.118,0.094-1.52,0.494c-0.399,0.4-0.58,0.953-0.493,1.518
		c0.107,0.699-0.117,1.387-0.616,1.886s-1.188,0.722-1.887,0.616c-0.563-0.089-1.117,0.093-1.518,0.494
		c-0.4,0.399-0.58,0.953-0.493,1.518c0.106,0.689-0.124,1.395-0.616,1.886c-0.499,0.498-1.183,0.721-1.888,0.616
		c-0.57-0.093-1.119,0.094-1.518,0.495c-0.4,0.4-0.58,0.954-0.492,1.517c0.106,0.688-0.125,1.395-0.616,1.887
		s-1.196,0.726-1.886,0.616c-0.563-0.089-1.116,0.092-1.518,0.491c-0.401,0.4-0.582,0.954-0.495,1.521
		c0.107,0.699-0.117,1.387-0.616,1.886c-0.5,0.5-1.19,0.724-1.887,0.616c-0.563-0.088-1.116,0.093-1.518,0.494
		c-0.4,0.399-0.58,0.953-0.493,1.518c0.106,0.689-0.124,1.395-0.616,1.886c-0.499,0.499-1.181,0.723-1.888,0.616
		c-0.561-0.088-1.115,0.093-1.516,0.493s-0.581,0.954-0.494,1.52c0.135,0.882-0.261,1.731-1.034,2.217
		c-0.684,0.429-1.6,0.424-2.281-0.011c-0.756-0.482-1.146-1.321-1.021-2.189c0.083-0.568-0.1-1.125-0.501-1.526
		c-0.337-0.337-0.783-0.52-1.255-0.52c-0.089,0-0.179,0.006-0.269,0.02c-0.692,0.097-1.375-0.124-1.87-0.62
		c-0.495-0.493-0.72-1.175-0.619-1.867c0.084-0.568-0.099-1.125-0.5-1.526s-0.954-0.589-1.524-0.5
		c-0.692,0.099-1.375-0.124-1.87-0.619s-0.721-1.177-0.619-1.871c0.083-0.567-0.1-1.122-0.5-1.523
		c-0.402-0.402-0.959-0.59-1.525-0.501c-0.693,0.096-1.375-0.123-1.87-0.618s-0.72-1.177-0.618-1.871
		c0.083-0.567-0.1-1.123-0.501-1.524c-0.401-0.4-0.96-0.588-1.524-0.5c-0.694,0.098-1.375-0.124-1.87-0.62
		c-0.495-0.493-0.72-1.175-0.619-1.867c0.084-0.567-0.098-1.123-0.499-1.524c-0.401-0.402-0.959-0.586-1.526-0.502
		c-0.867,0.127-1.717-0.269-2.2-1.036c-0.427-0.678-0.427-1.588,0-2.266c0.481-0.765,1.325-1.163,2.194-1.036
		c0.568,0.082,1.125-0.103,1.527-0.504c0.401-0.401,0.585-0.958,0.504-1.527c-0.101-0.691,0.126-1.371,0.619-1.864
		s1.174-0.716,1.863-0.62c0.57,0.088,1.126-0.101,1.528-0.502c0.401-0.402,0.585-0.959,0.503-1.526
		c-0.1-0.692,0.127-1.372,0.619-1.864c0.493-0.494,1.174-0.716,1.863-0.621c0.57,0.087,1.125-0.1,1.527-0.501
		c0.402-0.402,0.586-0.959,0.505-1.528c-0.101-0.691,0.126-1.371,0.62-1.864c0.492-0.494,1.172-0.722,1.863-0.619
		c0.572,0.08,1.125-0.104,1.526-0.504c0.401-0.401,0.585-0.958,0.504-1.527c-0.101-0.691,0.126-1.371,0.619-1.864
		s1.174-0.716,1.863-0.62c0.569,0.088,1.126-0.101,1.528-0.502c0.401-0.402,0.585-0.959,0.503-1.526
		c-0.1-0.692,0.127-1.372,0.619-1.864c0.493-0.493,1.175-0.715,1.863-0.621c0.569,0.088,1.125-0.101,1.527-0.502
		c0.402-0.402,0.586-0.96,0.504-1.528c-0.124-0.866,0.268-1.703,1.022-2.186c0.679-0.434,1.595-0.439,2.279-0.01
		c0.775,0.486,1.171,1.337,1.033,2.222c-0.086,0.557,0.099,1.124,0.494,1.518c0.399,0.399,0.947,0.58,1.516,0.491
		c0.689-0.107,1.396,0.123,1.889,0.615c0.493,0.493,0.723,1.199,0.615,1.892c-0.086,0.555,0.099,1.122,0.493,1.516
		c0.401,0.399,0.953,0.579,1.516,0.491c0.702-0.111,1.39,0.115,1.89,0.615c0.501,0.501,0.726,1.189,0.616,1.89
		c-0.086,0.556,0.098,1.123,0.492,1.518s0.966,0.571,1.516,0.491c0.695-0.108,1.397,0.124,1.891,0.616
		c0.493,0.493,0.723,1.199,0.615,1.889c-0.086,0.556,0.098,1.123,0.492,1.518s0.964,0.575,1.518,0.492
		c0.691-0.108,1.396,0.123,1.889,0.615c0.493,0.493,0.723,1.199,0.615,1.892c-0.087,0.563,0.093,1.116,0.493,1.516
		c0.396,0.395,0.96,0.578,1.517,0.491c0.877-0.138,1.733,0.258,2.221,1.033C56.165,26.319,56.165,27.229,55.739,27.906z"/>
	<path d="M7.8,30.792l-0.354,0.354c-0.391,0.391-0.391,1.023,0,1.414c0.195,0.195,0.451,0.293,0.707,0.293s0.512-0.098,0.707-0.293
		l0.354-0.354c0.391-0.391,0.391-1.023,0-1.414S8.19,30.401,7.8,30.792z"/>
	<path d="M16.641,24.778l0.354-0.354c0.391-0.391,0.391-1.023,0-1.414s-1.023-0.391-1.414,0l-0.354,0.354
		c-0.391,0.391-0.391,1.023,0,1.414c0.195,0.195,0.451,0.293,0.707,0.293S16.446,24.974,16.641,24.778z"/>
	<path d="M12.751,28.669l0.354-0.354c0.391-0.391,0.391-1.023,0-1.414s-1.023-0.391-1.414,0l-0.354,0.354
		c-0.391,0.391-0.391,1.023,0,1.414c0.195,0.195,0.451,0.293,0.707,0.293S12.556,28.864,12.751,28.669z"/>
	<path d="M20.533,20.887l0.354-0.354c0.391-0.391,0.391-1.023,0-1.414s-1.023-0.391-1.414,0l-0.354,0.354
		c-0.391,0.391-0.391,1.023,0,1.414c0.195,0.195,0.451,0.293,0.707,0.293S20.338,21.082,20.533,20.887z"/>
	<path d="M27.608,13.398c0.256,0,0.512-0.098,0.707-0.293l0.354-0.354c0.391-0.391,0.391-1.023,0-1.414s-1.023-0.391-1.414,0
		l-0.354,0.354c-0.391,0.391-0.391,1.023,0,1.414C27.097,13.301,27.352,13.398,27.608,13.398z"/>
	<path d="M23.717,17.289c0.256,0,0.511-0.098,0.706-0.292l0.354-0.354c0.392-0.39,0.392-1.023,0.002-1.414
		c-0.39-0.392-1.022-0.392-1.414-0.002l-0.354,0.354c-0.392,0.39-0.392,1.023-0.002,1.414C23.204,17.191,23.46,17.289,23.717,17.289
		z"/>
	<path d="M31.498,9.507c0.256,0,0.512-0.098,0.707-0.293l0.354-0.354c0.391-0.391,0.391-1.023,0-1.414s-1.023-0.391-1.414,0
		L30.791,7.8c-0.391,0.391-0.391,1.023,0,1.414C30.986,9.409,31.242,9.507,31.498,9.507z"/>
	<path d="M12.314,35.306l-0.354,0.354c-0.391,0.391-0.391,1.023,0,1.414c0.195,0.195,0.451,0.293,0.707,0.293
		s0.512-0.098,0.707-0.293l0.354-0.354c0.391-0.391,0.391-1.023,0-1.414S12.705,34.915,12.314,35.306z"/>
	<path d="M17.266,33.183l0.354-0.354c0.391-0.391,0.391-1.023,0-1.414s-1.023-0.391-1.414,0l-0.354,0.354
		c-0.391,0.391-0.391,1.023,0,1.414c0.195,0.195,0.451,0.293,0.707,0.293S17.07,33.378,17.266,33.183z"/>
	<path d="M21.156,29.291l0.354-0.354c0.391-0.391,0.391-1.023,0-1.414s-1.023-0.391-1.414,0l-0.354,0.354
		c-0.391,0.391-0.391,1.023,0,1.414c0.195,0.195,0.451,0.293,0.707,0.293S20.961,29.486,21.156,29.291z"/>
	<path d="M32.828,17.62l0.354-0.354c0.391-0.391,0.391-1.023,0-1.414s-1.023-0.391-1.414,0l-0.354,0.354
		c-0.391,0.391-0.391,1.023,0,1.414c0.195,0.195,0.451,0.293,0.707,0.293S32.633,17.815,32.828,17.62z"/>
	<path d="M27.877,19.743l-0.354,0.354c-0.391,0.391-0.391,1.023,0,1.414c0.195,0.195,0.451,0.293,0.707,0.293
		s0.512-0.098,0.707-0.293l0.354-0.354c0.391-0.391,0.391-1.023,0-1.414S28.267,19.353,27.877,19.743z"/>
	<path d="M25.047,25.401l0.354-0.354c0.391-0.391,0.391-1.023,0-1.414s-1.023-0.391-1.414,0l-0.354,0.354
		c-0.391,0.391-0.391,1.023,0,1.414c0.195,0.195,0.451,0.293,0.707,0.293S24.851,25.597,25.047,25.401z"/>
	<path d="M36.72,13.729l0.354-0.354c0.391-0.391,0.391-1.023,0-1.414s-1.023-0.391-1.414,0l-0.354,0.354
		c-0.391,0.391-0.391,1.023,0,1.414c0.195,0.195,0.451,0.293,0.707,0.293S36.524,13.924,36.72,13.729z"/>
	<path d="M16.828,39.819l-0.354,0.354c-0.391,0.391-0.391,1.023,0,1.414c0.195,0.195,0.451,0.293,0.707,0.293
		s0.512-0.098,0.707-0.293l0.354-0.354c0.391-0.391,0.391-1.023,0-1.414S17.219,39.429,16.828,39.819z"/>
	<path d="M25.67,33.806l0.354-0.354c0.391-0.391,0.391-1.023,0-1.414c-0.391-0.391-1.023-0.391-1.414,0l-0.354,0.354
		c-0.391,0.391-0.391,1.023,0,1.414c0.195,0.195,0.451,0.293,0.707,0.293S25.474,34.001,25.67,33.806z"/>
	<path d="M21.779,37.696l0.354-0.354c0.391-0.391,0.391-1.023,0-1.414s-1.023-0.391-1.414,0l-0.354,0.354
		c-0.391,0.391-0.391,1.023,0,1.414c0.195,0.195,0.451,0.293,0.707,0.293S21.584,37.892,21.779,37.696z"/>
	<path d="M33.451,26.024l0.354-0.354c0.391-0.391,0.391-1.023,0-1.414s-1.023-0.391-1.414,0l-0.354,0.354
		c-0.391,0.391-0.391,1.023,0,1.414c0.195,0.195,0.451,0.293,0.707,0.293S33.256,26.22,33.451,26.024z"/>
	<path d="M29.56,29.915l0.354-0.354c0.391-0.391,0.391-1.023,0-1.414s-1.023-0.391-1.414,0l-0.354,0.354
		c-0.391,0.391-0.391,1.023,0,1.414c0.195,0.195,0.451,0.293,0.707,0.293S29.365,30.11,29.56,29.915z"/>
	<path d="M37.342,22.134l0.354-0.354c0.391-0.391,0.391-1.023,0-1.414s-1.023-0.391-1.414,0l-0.354,0.354
		c-0.391,0.391-0.391,1.023,0,1.414c0.195,0.195,0.451,0.293,0.707,0.293S37.146,22.329,37.342,22.134z"/>
	<path d="M41.233,18.242l0.354-0.354c0.391-0.391,0.391-1.023,0-1.414s-1.023-0.391-1.414,0l-0.354,0.354
		c-0.391,0.391-0.391,1.023,0,1.414c0.195,0.195,0.451,0.293,0.707,0.293S41.038,18.438,41.233,18.242z"/>
	<path d="M21.342,44.334l-0.354,0.354c-0.391,0.391-0.391,1.023,0,1.414c0.195,0.195,0.451,0.293,0.707,0.293
		s0.512-0.098,0.707-0.293l0.354-0.354c0.391-0.391,0.391-1.023,0-1.414S21.732,43.943,21.342,44.334z"/>
	<path d="M30.183,38.32l0.354-0.354c0.391-0.391,0.391-1.023,0-1.414s-1.023-0.391-1.414,0l-0.354,0.354
		c-0.391,0.391-0.391,1.023,0,1.414c0.195,0.195,0.451,0.293,0.707,0.293S29.988,38.516,30.183,38.32z"/>
	<path d="M26.293,42.211l0.354-0.354c0.391-0.391,0.391-1.023,0-1.414s-1.023-0.391-1.414,0l-0.354,0.354
		c-0.391,0.391-0.391,1.023,0,1.414c0.195,0.195,0.451,0.293,0.707,0.293S26.098,42.406,26.293,42.211z"/>
	<path d="M41.856,26.647l0.354-0.354c0.391-0.391,0.391-1.023,0-1.414s-1.023-0.391-1.414,0l-0.354,0.354
		c-0.391,0.391-0.391,1.023,0,1.414c0.195,0.195,0.451,0.293,0.707,0.293S41.661,26.842,41.856,26.647z"/>
	<path d="M37.967,30.537l0.354-0.354c0.39-0.391,0.39-1.024-0.002-1.414c-0.391-0.39-1.023-0.39-1.414,0.002l-0.354,0.354
		c-0.39,0.391-0.39,1.024,0.002,1.414c0.195,0.194,0.45,0.292,0.706,0.292C37.516,30.831,37.771,30.733,37.967,30.537z"/>
	<path d="M34.075,34.429l0.354-0.354c0.391-0.391,0.391-1.023,0-1.414s-1.023-0.391-1.414,0l-0.354,0.354
		c-0.391,0.391-0.391,1.023,0,1.414c0.195,0.195,0.451,0.293,0.707,0.293S33.88,34.624,34.075,34.429z"/>
	<path d="M45.748,22.757l0.354-0.354c0.391-0.391,0.391-1.023,0-1.414s-1.023-0.391-1.414,0l-0.354,0.354
		c-0.391,0.391-0.391,1.023,0,1.414c0.195,0.195,0.451,0.293,0.707,0.293S45.553,22.952,45.748,22.757z"/>
	<path d="M25.856,48.848l-0.354,0.354c-0.391,0.391-0.391,1.023,0,1.414c0.195,0.195,0.451,0.293,0.707,0.293
		s0.512-0.098,0.707-0.293l0.354-0.354c0.391-0.391,0.391-1.023,0-1.414S26.247,48.457,25.856,48.848z"/>
	<path d="M29.747,44.957l-0.354,0.354c-0.391,0.391-0.391,1.023,0,1.414c0.195,0.195,0.451,0.293,0.707,0.293
		s0.512-0.098,0.707-0.293l0.354-0.354c0.391-0.391,0.391-1.023,0-1.414S30.138,44.566,29.747,44.957z"/>
	<path d="M33.638,41.066l-0.354,0.354c-0.391,0.391-0.391,1.023,0,1.414c0.195,0.195,0.451,0.293,0.707,0.293
		s0.512-0.098,0.707-0.293l0.354-0.354c0.391-0.391,0.391-1.023,0-1.414S34.028,40.676,33.638,41.066z"/>
	<path d="M37.528,37.175l-0.354,0.354c-0.391,0.391-0.391,1.023,0,1.414c0.195,0.195,0.451,0.293,0.707,0.293
		s0.512-0.098,0.707-0.293l0.354-0.354c0.391-0.391,0.391-1.023,0-1.414S37.919,36.784,37.528,37.175z"/>
	<path d="M45.31,29.394l-0.354,0.354c-0.391,0.391-0.391,1.023,0,1.414c0.195,0.195,0.451,0.293,0.707,0.293
		s0.512-0.098,0.707-0.293l0.354-0.354c0.391-0.391,0.391-1.023,0-1.414S45.701,29.003,45.31,29.394z"/>
	<path d="M41.421,33.283l-0.354,0.354c-0.392,0.39-0.392,1.023-0.002,1.414c0.195,0.196,0.451,0.294,0.708,0.294
		c0.256,0,0.511-0.098,0.706-0.292l0.354-0.354c0.392-0.39,0.392-1.023,0.002-1.414C42.445,32.893,41.812,32.895,41.421,33.283z"/>
	<path d="M49.201,25.503l-0.354,0.354c-0.391,0.391-0.391,1.023,0,1.414c0.195,0.195,0.451,0.293,0.707,0.293
		s0.512-0.098,0.707-0.293l0.354-0.354c0.391-0.391,0.391-1.023,0-1.414S49.592,25.112,49.201,25.503z"/>
</g>
</svg>