<?xml version="1.0" encoding="iso-8859-1"?>
<!-- Uploaded to: SVG Repo, www.svgrepo.com, Generator: SVG Repo Mixer Tools -->
<svg fill="#FFFFFF" height="800px" width="800px" version="1.1" id="Layer_1" xmlns="http://www.w3.org/2000/svg" xmlns:xlink="http://www.w3.org/1999/xlink" 
	 viewBox="0 0 511.843 511.843" xml:space="preserve">
<g>
	<g>
		<path d="M418.055,358.243c0-9.327-3.115-18.33-8.661-25.651c10.615-7.91,17.195-20.463,17.195-34.082
			c0-13.619-6.579-26.172-17.195-34.082c5.547-7.322,8.661-16.324,8.661-25.651c0-16.222-9.361-30.686-23.236-37.82
			c4.002-6.562,6.17-14.114,6.17-21.914c0.009-23.808-19.772-42.931-43.52-42.658c-3.959-19.456-21.205-34.142-41.813-34.142
			c-9.327,0-18.33,3.123-25.651,8.67c-6.135-8.252-15.095-14.012-25.165-16.196c3.814-40.568,38.349-69.274,84.949-69.274
			c4.719,0,8.533-3.823,8.533-8.533s-3.814-8.533-8.533-8.533c-31.898,0-59.008,11.486-77.338,30.481
			c-2.278-7.305-5.99-13.764-11.196-19.294c-17.911-19.046-46.507-19.541-47.718-19.55c-2.372-0.145-4.54,0.887-6.161,2.543
			c-1.621,1.647-2.509,3.883-2.449,6.195c0.026,1.186,0.939,29.141,19.985,46.788c7.808,7.236,17.442,11.546,28.629,13.099
			c-3.081,8.09-5.06,16.759-5.768,25.941c-10.377,2.048-19.635,7.876-25.924,16.333c-7.33-5.547-16.324-8.67-25.66-8.67
			c-20.608,0-37.845,14.686-41.813,34.142c-23.91-0.341-43.52,18.85-43.52,42.658c0,7.799,2.176,15.352,6.178,21.914
			c-13.875,7.134-23.245,21.598-23.245,37.82c0,9.327,3.123,18.33,8.67,25.651c-10.615,7.902-17.203,20.463-17.203,34.082
			c0,13.619,6.588,26.172,17.203,34.082c-5.547,7.322-8.67,16.324-8.67,25.651c0,13.619,6.588,26.172,17.203,34.082
			c-5.547,7.322-8.67,16.324-8.67,25.651c0,23.526,19.149,42.667,42.667,42.667c3.089,0,6.178-0.358,9.199-1.041
			c3.55,19.968,21.035,35.174,42.001,35.174c7.799,0,15.352-2.167,21.914-6.17c7.134,13.867,21.598,23.236,37.82,23.236
			c16.23,0,30.694-9.37,37.828-23.236c6.562,4.002,14.106,6.17,21.905,6.17c20.975,0,38.46-15.206,42.01-35.174
			c3.021,0.683,6.11,1.041,9.19,1.041c23.526,0,42.667-19.14,42.667-42.667c0-9.327-3.115-18.33-8.661-25.651
			C411.476,384.415,418.055,371.862,418.055,358.243z M300.576,167.19c3.328-3.336,8.73-3.336,12.066,0
			c3.328,3.328,3.328,8.73,0,12.066c-3.226,3.226-5.001,7.509-5.001,12.066c0,4.565,1.775,8.849,5.001,12.066
			c6.451,6.451,17.69,6.451,24.132,0c3.337-3.328,8.738-3.328,12.075,0c3.328,3.337,3.328,8.738,0,12.075
			c-6.451,6.443-15.027,9.993-24.141,9.993s-17.69-3.55-24.132-9.993c-6.451-6.451-10.001-15.019-10.001-24.141
			C290.575,182.209,294.125,173.633,300.576,167.19z M146.456,209.217c3.336-3.337,8.738-3.337,12.066,0
			c6.665,6.647,17.476,6.647,24.132,0c3.226-3.226,5.001-7.509,5.001-12.066c0-4.565-1.775-8.849-5.001-12.075
			c-3.328-3.328-3.328-8.73,0-12.066c3.328-3.337,8.738-3.337,12.075,0c6.443,6.443,9.992,15.019,9.992,24.141
			c0,9.114-3.55,17.681-9.992,24.132c-6.656,6.647-15.403,9.975-24.141,9.984c-8.738,0-17.476-3.337-24.132-9.984
			C143.128,217.946,143.128,212.545,146.456,209.217z M203.262,348.242c-6.451,6.451-15.019,10.001-24.141,10.001
			c-9.114,0-17.681-3.55-24.132-10.001c-3.328-3.337-3.328-8.738,0-12.066c3.337-3.336,8.738-3.336,12.066,0
			c6.451,6.451,17.69,6.451,24.132,0c3.226-3.226,5.001-7.509,5.001-12.066s-1.775-8.841-5.001-12.066
			c-3.328-3.328-3.328-8.738,0-12.066c3.328-3.337,8.738-3.337,12.075,0c6.443,6.443,9.992,15.019,9.992,24.132
			S209.705,341.799,203.262,348.242z M281.035,420.792c-3.029,8.602-9.233,15.497-17.459,19.43
			c-4.668,2.236-9.668,3.362-14.703,3.362c-3.831,0-7.663-0.649-11.383-1.963c-8.602-3.029-15.497-9.233-19.43-17.459
			c-3.934-8.226-4.429-17.493-1.391-26.095c1.562-4.446,6.434-6.776,10.889-5.197c4.437,1.562,6.775,6.434,5.205,10.88
			c-1.519,4.301-1.271,8.934,0.691,13.047c1.971,4.113,5.419,7.219,9.719,8.73c4.292,1.51,8.926,1.271,13.047-0.7
			c4.104-1.963,7.211-5.419,8.73-9.711c1.562-4.446,6.443-6.775,10.88-5.205C280.276,411.474,282.605,416.355,281.035,420.792z
			 M274.396,298.586c-1.212,0-2.423-0.068-3.635-0.196c-18.722-1.971-32.341-18.799-30.379-37.513
			c0.495-4.685,4.659-8.055,9.378-7.595c4.693,0.495,8.09,4.685,7.595,9.378c-0.478,4.531,0.836,8.986,3.712,12.527
			c2.867,3.541,6.946,5.751,11.477,6.229c4.514,0.486,8.986-0.845,12.527-3.712c3.541-2.859,5.76-6.938,6.229-11.469
			c0.495-4.693,4.625-8.09,9.387-7.595c4.685,0.495,8.081,4.685,7.595,9.378c-0.956,9.071-5.385,17.22-12.476,22.955
			C289.671,295.941,282.179,298.586,274.396,298.586z M350.283,350.947c-4.796,7.757-12.331,13.175-21.205,15.266
			c-2.62,0.614-5.265,0.913-7.885,0.913c-6.272,0-12.433-1.741-17.894-5.12c-7.757-4.804-13.175-12.331-15.266-21.205
			c-1.075-4.591,1.766-9.182,6.357-10.266c4.599-1.092,9.182,1.775,10.257,6.357c1.041,4.437,3.755,8.201,7.629,10.607
			c3.874,2.389,8.457,3.14,12.894,2.099c4.437-1.05,8.201-3.755,10.598-7.637c2.406-3.874,3.149-8.448,2.099-12.885
			c-1.075-4.591,1.766-9.19,6.357-10.266c4.599-1.075,9.182,1.766,10.266,6.357C356.572,334.042,355.079,343.199,350.283,350.947z"
			/>
	</g>
</g>
</svg>