<?xml version="1.0" encoding="iso-8859-1"?>
<!-- Uploaded to: SVG Repo, www.svgrepo.com, Generator: SVG Repo Mixer Tools -->
<!DOCTYPE svg PUBLIC "-//W3C//DTD SVG 1.1//EN" "http://www.w3.org/Graphics/SVG/1.1/DTD/svg11.dtd">
<svg fill="#ffffff" height="800px" width="800px" version="1.1" id="Capa_1" xmlns="http://www.w3.org/2000/svg" xmlns:xlink="http://www.w3.org/1999/xlink" 
	 viewBox="0 0 57.001 57.001" xml:space="preserve">
<path d="M56.784,15.512C55.662,8.545,50.201,3.188,43.194,2.18c-1.45-0.207-2.938-0.214-4.411-0.028
	c-2.044-0.255-4.101-0.145-6.056,0.354c-4.109,1.043-8.463,1.044-12.57-0.001c-2.049-0.521-4.21-0.632-6.349-0.325
	C6.872,3.176,1.421,8.466,0.244,15.343c-0.889,5.195,0.673,10.323,4.285,14.069c2.095,2.173,3.249,4.933,3.249,7.771v11.393
	c0,3.537,2.878,6.415,6.415,6.415h24.051h4.116c3.538,0,6.416-2.878,6.416-6.415v-10.95c0-2.921,1.233-5.758,3.471-7.989
	C55.977,25.918,57.631,20.771,56.784,15.512z M5.884,19.009c-0.256,0-0.512-0.098-0.707-0.293c-0.391-0.391-0.391-1.023,0-1.414
	l11-11c0.391-0.391,1.023-0.391,1.414,0s0.391,1.023,0,1.414l-11,11C6.396,18.911,6.14,19.009,5.884,19.009z M9.091,26.216
	c-0.195,0.195-0.451,0.293-0.707,0.293s-0.512-0.098-0.707-0.293c-0.391-0.391-0.391-1.023,0-1.414l15-15
	c0.391-0.391,1.023-0.391,1.414,0s0.391,1.023,0,1.414L9.091,26.216z M10.677,31.802l25-25c0.391-0.391,1.023-0.391,1.414,0
	s0.391,1.023,0,1.414l-25,25c-0.195,0.195-0.451,0.293-0.707,0.293s-0.512-0.098-0.707-0.293
	C10.287,32.825,10.287,32.193,10.677,31.802z M11.884,44.009c-0.256,0-0.512-0.098-0.707-0.293c-0.391-0.391-0.391-1.023,0-1.414
	l32-32c0.391-0.391,1.023-0.391,1.414,0s0.391,1.023,0,1.414l-32,32C12.396,43.911,12.14,44.009,11.884,44.009z M14.884,51.009
	c-0.256,0-0.512-0.098-0.707-0.293c-0.391-0.391-0.391-1.023,0-1.414l32-32c0.391-0.391,1.023-0.391,1.414,0s0.391,1.023,0,1.414
	l-32,32C15.396,50.911,15.14,51.009,14.884,51.009z M24.884,51.009c-0.256,0-0.512-0.098-0.707-0.293
	c-0.391-0.391-0.391-1.023,0-1.414l15-15c0.391-0.391,1.023-0.391,1.414,0s0.391,1.023,0,1.414l-15,15
	C25.396,50.911,25.14,51.009,24.884,51.009z M33.884,52.009c-0.256,0-0.512-0.098-0.707-0.293c-0.391-0.391-0.391-1.023,0-1.414l6-6
	c0.391-0.391,1.023-0.391,1.414,0s0.391,1.023,0,1.414l-6,6C34.396,51.911,34.14,52.009,33.884,52.009z M50.835,28.22
	c-2.618,2.609-4.059,5.949-4.059,9.405v10.95c0,2.242-1.68,4.099-3.847,4.379c0.049-0.053,0.093-0.111,0.141-0.165
	c0.06-0.068,0.12-0.136,0.177-0.207c0.069-0.087,0.134-0.177,0.199-0.267c0.053-0.073,0.107-0.146,0.156-0.221
	c0.062-0.094,0.119-0.192,0.176-0.29c0.045-0.077,0.091-0.152,0.133-0.231c0.054-0.102,0.102-0.208,0.151-0.313
	c0.037-0.08,0.076-0.158,0.11-0.239c0.045-0.109,0.083-0.222,0.123-0.334c0.029-0.082,0.06-0.161,0.085-0.244
	c0.036-0.12,0.065-0.242,0.094-0.365c0.019-0.079,0.042-0.157,0.058-0.238c0.028-0.139,0.046-0.281,0.065-0.423
	c0.009-0.067,0.023-0.133,0.029-0.201c0.021-0.211,0.033-0.425,0.033-0.642V37.626c0-1.826,0.482-3.619,1.389-5.252
	c0.545-0.98,1.243-1.902,2.082-2.739c3.73-3.718,5.384-8.866,4.537-14.124c-0.08-0.496-0.188-0.982-0.311-1.461
	c-0.038-0.148-0.084-0.292-0.126-0.439c-0.095-0.333-0.199-0.661-0.314-0.983c-0.057-0.159-0.116-0.316-0.178-0.472
	c-0.125-0.317-0.261-0.628-0.405-0.935c-0.063-0.135-0.123-0.271-0.19-0.405c-0.203-0.402-0.419-0.795-0.654-1.177
	c-0.016-0.026-0.029-0.053-0.045-0.079c-0.255-0.41-0.532-0.804-0.822-1.188c-0.078-0.103-0.162-0.2-0.242-0.301
	c-0.22-0.276-0.446-0.546-0.684-0.806c-0.104-0.114-0.21-0.225-0.317-0.336c-0.238-0.247-0.484-0.484-0.737-0.715
	c-0.104-0.095-0.206-0.191-0.312-0.283C47,5.646,46.659,5.374,46.306,5.116c-0.028-0.02-0.052-0.044-0.08-0.064
	c4.491,1.813,7.787,5.832,8.583,10.778C55.553,20.446,54.104,24.961,50.835,28.22z"/>
</svg>