<?xml version="1.0" encoding="iso-8859-1"?>
<!-- Uploaded to: SVG Repo, www.svgrepo.com, Generator: SVG Repo Mixer Tools -->
<svg fill="#ffffff" height="800px" width="800px" version="1.1" id="Layer_1" xmlns="http://www.w3.org/2000/svg" xmlns:xlink="http://www.w3.org/1999/xlink" 
	 viewBox="0 0 511.608 511.608" xml:space="preserve">
<g>
	<g>
		<path d="M473.2,234.604c12.4-14,18.8-31.6,18.8-50.4c0-42-34.4-76.4-76.4-76.4c-7.6,0-15.2,1.2-22,3.2c1.6-6.4,2.4-12.8,2.4-19.2
			c0-46.4-37.6-84-84-84c-28,0-54.4,14-69.6,37.2c-15.2-16-36.4-25.2-58.4-25.2c-42.4,0-77.2,32.8-79.6,74.8
			c-28.4,8.8-48.4,35.2-48.4,65.2c0,8.8,1.6,17.2,4.8,25.6c-34.8,6.8-60.8,38-60.8,74.4c0,42,34,76,76,76h0.4c4,28,29.2,52,59.6,52
			c24.8,0,46-14.8,55.2-36.4c33.6,36.4,36.4,90.8,36.4,148.4c0,2.4,1.6,4,4,4H304c1.2,0,2-0.4,2.8-1.2s1.2-2,1.2-2.8
			s-1.6-84,26.8-121.6c5.6,1.2,11.2,2,16.8,2c22,0,43.2-9.2,58.4-25.6c10.4,6,22,9.2,34,9.2c37.2,0,67.6-30.4,67.6-67.6
			C512,269.404,496.8,245.804,473.2,234.604z M268.4,387.804c-6.8-21.6-21.6-54.8-37.6-72c14.8-0.4,29.6-5.2,41.6-14
			c0.4,15.6,5.2,30,13.6,42.4C278.4,355.804,272,374.604,268.4,387.804z"/>
	</g>
</g>
</svg>