<?xml version="1.0" encoding="iso-8859-1"?>
<!-- Uploaded to: SVG Repo, www.svgrepo.com, Generator: SVG Repo Mixer Tools -->
<svg fill="#ffffff" height="800px" width="800px" version="1.1" id="Layer_1" xmlns="http://www.w3.org/2000/svg" xmlns:xlink="http://www.w3.org/1999/xlink" 
	 viewBox="0 0 512 512" xml:space="preserve">
<g>
	<g>
		<g>
			<path d="M403.071,458.192l-17.216-240.876c-1.721-24.4-20.714-43.703-44.52-46.333V128c11.782,0,21.333-9.551,21.333-21.333
				C362.669,47.759,314.91,0,256.002,0S149.335,47.759,149.335,106.667c0,11.782,9.551,21.333,21.333,21.333v42.985
				c-23.812,2.636-42.803,21.932-44.525,46.351l-17.215,240.855c-2.077,29.075,20.952,53.809,50.1,53.809h193.941
				C382.119,512,405.148,487.267,403.071,458.192z M256.002,42.667c27.863,0,51.571,17.81,60.358,42.667H195.645
				C204.431,60.477,228.139,42.667,256.002,42.667z M213.335,170.667v-42.665h85.333v42.665H213.335z M352.971,469.333H159.029
				c-4.387,0-7.855-3.725-7.542-8.101l17.216-240.874c0.28-3.966,3.566-7.025,7.542-7.025h15.715c0.014,0,0.028,0.002,0.042,0.002
				h128c0.014,0,0.028-0.002,0.042-0.002h15.732c3.956,0,7.241,3.06,7.52,7.005l17.217,240.895
				C360.826,465.609,357.358,469.333,352.971,469.333z"/>
			<path d="M256.002,277.333h42.667c11.782,0,21.333-9.551,21.333-21.333c0-11.782-9.551-21.333-21.333-21.333h-42.667
				c-35.355,0-64,28.645-64,64s28.645,64,64,64c11.791,0,21.333,9.542,21.333,21.333s-9.542,21.333-21.333,21.333h-42.667
				c-11.782,0-21.333,9.551-21.333,21.333S201.553,448,213.335,448h42.667c35.355,0,64-28.645,64-64c0-35.355-28.645-64-64-64
				c-11.791,0-21.333-9.542-21.333-21.333S244.211,277.333,256.002,277.333z"/>
		</g>
	</g>
</g>
</svg>