<?xml version="1.0" encoding="iso-8859-1"?>
<!-- Uploaded to: SVG Repo, www.svgrepo.com, Generator: SVG Repo Mixer Tools -->
<!DOCTYPE svg PUBLIC "-//W3C//DTD SVG 1.1//EN" "http://www.w3.org/Graphics/SVG/1.1/DTD/svg11.dtd">
<svg fill="#ffffff" height="800px" width="800px" version="1.1" id="Capa_1" xmlns="http://www.w3.org/2000/svg" xmlns:xlink="http://www.w3.org/1999/xlink" 
	 viewBox="0 0 52.85 52.85" xml:space="preserve">
<g>
	<path d="M27.956,22.843c3.248,3.968,9.03,4.266,9.088,4.269c0.292,0.035,5.098,0.723,7.656,4.948
		c1.942,3.209,2.003,7.504,0.227,12.755c0.06-0.066,0.115-0.126,0.16-0.177l0.942-3.77c2.581-8.691-0.685-12-0.718-12.032
		l-0.111-0.124c-0.434-0.577-0.815-1.14-1.159-1.693c-0.08-0.129-0.157-0.257-0.233-0.385c-0.314-0.53-0.595-1.049-0.833-1.555
		c-0.402-0.855-0.7-1.675-0.912-2.46c-0.002-0.007-0.005-0.015-0.007-0.022c-0.108-0.401-0.186-0.789-0.25-1.171
		c-0.063-0.372-0.113-0.738-0.139-1.092c-0.004-0.052-0.003-0.102-0.006-0.153c-0.025-0.422-0.03-0.833-0.009-1.229
		c0.002-0.036,0.007-0.071,0.009-0.107c0.273-4.366,3.122-7.011,3.642-7.458c0.307-0.335,0.611-0.628,0.914-0.898
		c0.015-0.013,0.03-0.031,0.045-0.045c-5.207-5.39-12.662-8.105-20.294-7.131c0.667,2.381,0.685,5.694,0.019,9.949
		C25.363,17.261,26.025,20.483,27.956,22.843z"/>
	<path d="M50.566,11.035c-0.199-0.124-0.451-0.221-0.753-0.221c-0.295,0-0.698,0.087-1.213,0.381L48.296,11.4
		c-0.255,0.172-0.508,0.37-0.763,0.596c-0.008,0.007-0.016,0.015-0.024,0.022c-0.249,0.223-0.5,0.473-0.756,0.753
		c-0.004,0.005-0.008,0.008-0.012,0.012l-0.125,0.116c-0.273,0.217-6.663,5.451,0.143,14.557c0.056,0.058,0.143,0.158,0.243,0.28
		c0.031,0.038,0.057,0.068,0.091,0.112c0.024,0.032,0.053,0.075,0.079,0.11c0.05,0.068,0.099,0.132,0.153,0.212
		c0.03,0.044,0.062,0.1,0.093,0.148c0.055,0.085,0.108,0.166,0.165,0.263c0.037,0.063,0.076,0.14,0.113,0.209
		c0.052,0.096,0.105,0.185,0.158,0.291c0.043,0.086,0.085,0.188,0.128,0.281c0.048,0.104,0.096,0.201,0.143,0.314
		c0.043,0.103,0.083,0.223,0.125,0.334c0.045,0.119,0.091,0.229,0.133,0.357c0.043,0.13,0.081,0.276,0.122,0.415
		c0.037,0.125,0.076,0.242,0.11,0.375c0.041,0.159,0.074,0.335,0.11,0.505c0.027,0.129,0.059,0.25,0.083,0.386
		c0.033,0.182,0.055,0.383,0.082,0.577c0.019,0.141,0.044,0.272,0.059,0.419c0.02,0.191,0.028,0.4,0.042,0.602
		c0.011,0.168,0.028,0.326,0.034,0.502c0.007,0.206,0,0.431-0.001,0.648c-0.001,0.189,0.005,0.368-0.002,0.564
		c-0.008,0.234-0.033,0.486-0.051,0.732c-0.015,0.198-0.021,0.387-0.043,0.594c-0.026,0.248-0.07,0.516-0.106,0.776
		c-0.031,0.223-0.053,0.436-0.092,0.667c-0.043,0.252-0.105,0.522-0.158,0.784c-0.052,0.259-0.095,0.509-0.158,0.778
		c-0.061,0.259-0.142,0.538-0.213,0.806c-0.075,0.283-0.138,0.556-0.225,0.849c5.458-7.369,6.486-17.28,2.31-25.328
		c-0.603-1.165-0.756-2.421-0.43-3.538C50.019,11.91,50.26,11.425,50.566,11.035z"/>
	<path d="M12.144,10.046c-0.066,0.065-0.138,0.122-0.203,0.187c-0.546,0.499-1.055,1.008-1.535,1.526
		c-0.036,0.039-0.073,0.078-0.108,0.117c-0.109,0.119-0.2,0.243-0.306,0.363c0.04,0.014,0.089,0.033,0.131,0.049
		c0.075,0.027,0.145,0.052,0.226,0.084c0.109,0.042,0.228,0.093,0.348,0.144c0.069,0.029,0.131,0.054,0.203,0.086
		c0.193,0.086,0.398,0.184,0.613,0.294c0.063,0.032,0.13,0.071,0.194,0.105c0.161,0.085,0.323,0.174,0.493,0.274
		c0.089,0.052,0.18,0.11,0.271,0.167c0.154,0.095,0.308,0.193,0.466,0.3c0.1,0.068,0.201,0.138,0.302,0.211
		c0.158,0.113,0.317,0.232,0.479,0.357c0.103,0.08,0.205,0.159,0.308,0.244c0.171,0.14,0.342,0.291,0.515,0.446
		c0.095,0.085,0.189,0.166,0.284,0.256c0.221,0.209,0.441,0.435,0.661,0.671c0.045,0.049,0.091,0.091,0.136,0.141
		c0.263,0.289,0.522,0.601,0.779,0.931c0.074,0.095,0.144,0.2,0.217,0.298c0.182,0.245,0.362,0.497,0.537,0.764
		c0.09,0.137,0.176,0.282,0.264,0.425c0.154,0.251,0.306,0.509,0.454,0.778c0.089,0.163,0.176,0.33,0.263,0.5
		c0.141,0.278,0.277,0.568,0.41,0.866c0.08,0.179,0.16,0.356,0.236,0.543c0.136,0.332,0.263,0.682,0.388,1.038
		c0.06,0.172,0.124,0.337,0.182,0.515c0.175,0.544,0.339,1.109,0.483,1.708l0.021,0.12c0.002,0.017,0.011,0.085,0.033,0.192
		c0.153,0.751,0.925,3.428,4.232,4.117c0.015-0.006,0.062-0.013,0.11-0.018c0.075-0.009,0.15-0.017,0.226-0.021
		c0.361-0.022,0.776-0.071,1.227-0.123c0.846-0.099,1.804-0.209,2.791-0.209c2.098,0,3.643,0.528,4.722,1.616
		c1.135,1.145,1.7,2.888,1.682,5.182l-0.024,0.209c-0.007,0.034-0.777,3.714,1.198,6.163c1.329,1.647,3.614,2.422,6.901,2.307
		c0.003,0,0.007,0,0.01,0c0.001,0,0.001,0,0.001,0c0.052-0.003,0.104,0.001,0.155,0.003c1.51-4.563,1.471-8.212-0.118-10.855
		c-2.049-3.406-6.095-4.008-6.136-4.013c-0.182-0.004-6.648-0.34-10.456-4.992c-2.308-2.819-3.114-6.572-2.396-11.153
		c0.895-5.717,0.361-8.625-0.309-10.095c-0.229-0.495-0.489-0.85-0.756-1.111c-0.057-0.056-0.114-0.114-0.172-0.161
		c-0.076-0.062-0.151-0.119-0.226-0.167c-0.054-0.034-0.107-0.063-0.16-0.091c-0.117-0.063-0.231-0.112-0.341-0.148
		c-0.061-0.019-0.123-0.041-0.182-0.054c-0.056-0.013-0.109-0.022-0.161-0.029c-0.083-0.011-0.164-0.02-0.238-0.021
		c-0.017,0-0.037-0.003-0.053-0.003c-0.113,0-0.191,0.01-0.218,0.015L21,1.111c-0.122,0-0.235,0.033-0.339,0.091
		c-0.006,0.003-0.012,0.01-0.018,0.013c-0.09,0.054-0.173,0.13-0.25,0.22c-0.022,0.027-0.044,0.056-0.065,0.085
		c-0.061,0.082-0.119,0.172-0.171,0.273c-0.019,0.036-0.037,0.072-0.055,0.11c-0.056,0.119-0.107,0.244-0.153,0.378
		c-0.007,0.02-0.014,0.039-0.021,0.059c-0.221,0.675-0.331,1.495-0.364,2.107l-0.006,0.118c-0.004,0.106-0.008,0.213-0.007,0.306
		l0.005,0.679l-0.629,0.257C16.451,6.813,14.161,8.253,12.144,10.046z"/>
	<path d="M7.825,13.831c-0.422-0.055-0.836-0.105-1.219-0.134c-0.035-0.003-0.065-0.002-0.099-0.005
		c-0.435-0.031-0.85-0.05-1.24-0.05c-4.452,0-5.153,1.888-5.262,2.467c-0.005,0.029-0.006,0.065-0.001,0.107
		c0.208,1.726,1.355,2.701,2.282,3.216c0.879,0.486,1.329,1.496,1.118,2.511c-1.497,7.198,0.243,14.314,4.899,20.04
		c4.985,6.13,12.556,9.789,20.251,9.79c4.689,0,9.163-1.385,13.054-4.023c0.556-0.377,1.1-0.779,1.631-1.207
		c0.115-0.093,0.125-0.216,0.12-0.28c-0.004-0.061-0.034-0.167-0.142-0.242l-0.028-0.019c-0.041-0.021-0.093-0.036-0.149-0.036
		c-0.256,0.009-0.491,0.014-0.723,0.014c-3.559,0-6.193-1.035-7.831-3.076c-2.377-2.963-1.749-6.981-1.606-7.725
		c0-1.693-0.37-2.925-1.102-3.662c-0.694-0.7-1.743-1.025-3.302-1.025c-0.871,0-1.769,0.104-2.56,0.195
		c-0.49,0.057-0.942,0.108-1.333,0.133l-0.122,0.013c-0.124,0.014-0.248,0.025-0.371,0.025c-0.128,0-0.246-0.012-0.362-0.035
		c-0.004-0.001-0.008,0-0.011-0.001c-3.61-0.752-5.2-3.438-5.691-5.257c-0.07-0.26-0.118-0.502-0.146-0.718
		c-2.193-9.027-8.422-10.729-9.126-10.895C8.425,13.897,8.134,13.871,7.825,13.831z"/>
</g>
</svg>