<?xml version="1.0" ?>

<!DOCTYPE svg  PUBLIC '-//W3C//DTD SVG 1.1//EN'  'http://www.w3.org/Graphics/SVG/1.1/DTD/svg11.dtd'>

<!-- Uploaded to: SVG Repo, www.svgrepo.com, Generator: SVG Repo Mixer Tools -->
<svg fill="#FFFFFF" width="800px" height="800px" viewBox="0 0 50 50" enable-background="new 0 0 50 50" version="1.1" xml:space="preserve" xmlns="http://www.w3.org/2000/svg" xmlns:xlink="http://www.w3.org/1999/xlink">

<g id="Layer_23"/>

<g id="Layer_22"/>

<g id="Layer_21"/>

<g id="Layer_20"/>

<g id="Layer_19"/>

<g id="Layer_18"/>

<g id="Layer_17"/>

<g id="Layer_16"/>

<g id="Layer_15"/>

<g id="Layer_14"/>

<g id="Layer_13"/>

<g id="Layer_12"/>

<g id="Layer_11"/>

<g id="Layer_10"/>

<g id="Layer_9"/>

<g id="Layer_8">

<path clip-rule="evenodd" d="M6.785,15.662c6.153-0.218,12.404,2.204,17.723,5.349   c1.101-0.66,2.232-1.297,3.388-1.891c-0.847-0.874-1.688-1.719-2.577-2.503c-7.135-6.294-12.309-9.023-20.482-8.336l2.81,5.855   C7.342,14.627,7.054,15.137,6.785,15.662 M14.707,7.289c3.835,1.463,7.498,3.882,10.601,6.431c3.11-2.54,6.7-4.79,10.456-6.21   C29.304,3.529,21.255,3.472,14.707,7.289z M45.491,8.555c-7.318-0.619-11.905,1.366-18.485,6.62c1.035,0.932,2.005,1.93,2.97,2.933   c4.164-1.901,8.59-3.167,13.039-3.059l-0.347-0.595L45.491,8.555z M39.616,17.49c-4.157,0.563-8.491,2.301-12.95,4.863   c6.043,3.913,10.76,8.462,15.891,13.455c2.245-3.629,3.218-7.628,3.028-11.88L50,18.898C46.276,17.509,43.928,16.907,39.616,17.49z    M41.257,37.67c-5.394-5.259-10.318-9.991-16.747-14.023c-6.452-4.047-12.451-5.979-17.742-5.746   C4.236,18.008,2.362,18.689,0,19.57c1.582,1.626,3.098,3.192,4.539,4.953c-0.266,11.651,9.116,21.153,20.774,21.001   C31.308,45.446,37.251,42.781,41.257,37.67z" fill-rule="evenodd"/>

</g>

<g id="Layer_7"/>

<g id="Layer_6"/>

<g id="Layer_5"/>

<g id="Layer_4"/>

<g id="Layer_3"/>

<g id="Layer_2"/>

</svg>