<?xml version="1.0" encoding="utf-8"?>

<!DOCTYPE svg PUBLIC "-//W3C//DTD SVG 1.1//EN" "http://www.w3.org/Graphics/SVG/1.1/DTD/svg11.dtd">
<!-- Uploaded to: SVG Repo, www.svgrepo.com, Generator: SVG Repo Mixer Tools -->
<svg height="800px" width="800px" version="1.1" id="_x32_" xmlns="http://www.w3.org/2000/svg" xmlns:xlink="http://www.w3.org/1999/xlink" 
	 viewBox="0 0 512 512"  xml:space="preserve" fill="#ffffff">
<g>
	<path d="M452.762,145.38c-42.12-1.683-121.506,53.426-147.52,70.052c-22.621,19.972-29.251,6.016-17.532-5.69
		c16.207-16.173,30.217-37.233,96.573-69.491c33.279-16.18,44.181-23.736,33.042-35.165c-11.144-11.442-40.024,1.304-32.698-7.671
		c7.313-8.996,17.532-42.633,6.238-50.926c-11.28-8.272-40.301,11.564-46.688,21.242c-6.366,9.679-2.872-21.694-17.126-28.893
		c-14.247-7.191-18.18,5.461-23.641,42.059c-10.875,72.979-26.764,92.666-37.328,112.983c-7.657,14.687-22.952,12.53-10.685-15.031
		c8.056-29.799,36.834-122.059,22.587-161.732c-14.241-39.672-50.128-1.075-40.41,22.29c-27.866-25.974-35.253,15.612-10.713,61.043
		c5.833,10.814,17.998,54.785-4.947,102.318c-11.821-6.941-29.501-12.497-47.702-5.853c-19.681,7.279-35.05,16.166-47.155,25.831
		c-6.319,5.056-11.773,10.334-16.518,15.781c-23.898,27.095-29.44,57.11-36.888,75.256c-1.939,4.663-4.028,10.685-6.15,17.627
		c-2.176,6.9-4.44,14.68-6.712,22.985c-9.151,33.279-18.322,73.676-21.836,91.268c-7.023,34.942,6.002,48.791,17.139,56.961
		c11.185,8.212,28.305,16.485,59.53-0.696c23.344-12.909,91.572-52.98,115.355-72.695c4.319-3.602,9.665-7.326,15.47-11.564
		c5.813-4.238,12.05-8.935,18.33-14.443c22.215-19.505,44.83-49.425,47.58-104.926c0.831-19.37-9.712-34.53-19.891-43.748
		c38.463-36.145,84.056-37.74,96.127-35.408c50.689,9.78,88.159-9.726,55.014-28.528C468.82,192.879,494.874,147.069,452.762,145.38
		z M244.328,381.361c-1.466,1.291-2.933,2.419-4.4,3.623l-38.862-28.528c-5.447-3.988-12.862-3.163-16.544,1.859
		c-3.643,4.961-2.211,12.286,3.23,16.281l33.468,24.554c-3.561,2.602-7.008,5.136-10.138,7.752
		c-21.641,17.944-87.49,56.772-111.26,69.917c-18.356,10.09-23.553,6.272-27.352,3.487c-3.778-2.778-8.941-6.562-4.812-27.128
		c3.184-15.944,10.807-49.642,18.843-79.927l14.233,10.442c5.447,4.002,12.855,3.163,16.491-1.798
		c3.684-5.022,2.258-12.334-3.19-16.329l-21.08-15.484c0.879-2.967,1.744-5.9,2.609-8.617c1.899-6.19,3.73-11.469,5.339-15.349
		c2.062-5.035,3.866-10.401,5.766-16.072c5.508-16.443,11.746-35.084,26.75-52.102c0.467-0.527,1.007-1.02,1.48-1.541l52.129,38.253
		c5.447,3.988,12.794,3.116,16.471-1.899c3.649-4.968,2.278-12.24-3.17-16.241l-48.054-35.266
		c9.726-6.819,21.073-12.747,33.996-17.518c11.476-4.19,22.607,3.346,24.723,4.9l60.022,44.045
		c2.981,2.19,12.659,10.246,12.159,22.06C280.763,343.419,261.15,366.601,244.328,381.361z"/>
</g>
</svg>