<?xml version="1.0" encoding="utf-8"?>

<!DOCTYPE svg PUBLIC "-//W3C//DTD SVG 1.1//EN" "http://www.w3.org/Graphics/SVG/1.1/DTD/svg11.dtd">
<!-- Uploaded to: SVG Repo, www.svgrepo.com, Generator: SVG Repo Mixer Tools -->
<svg height="800px" width="800px" version="1.1" id="_x32_" xmlns="http://www.w3.org/2000/svg" xmlns:xlink="http://www.w3.org/1999/xlink" 
	 viewBox="0 0 512 512"  xml:space="preserve">
<style type="text/css">
	.st0{fill:#ffffff;}
</style>
<g>
	<path class="st0" d="M16.238,288.457l486.789-149.632c5.112-1.58,8.68-6.226,8.852-11.58c0.172-5.363-3.066-10.225-8.074-12.142
		L271.839,26.621c-9.81-3.74-20.908-1.434-28.404,5.933L3.767,267.49c-4.137,4.058-4.965,10.414-1.995,15.38
		C4.726,287.853,10.711,290.15,16.238,288.457z"/>
	<path class="st0" d="M503.882,222.885c2.824,0,5.536,0.415,8.118,1.149v-57.16l-161.084,49.518
		c11.952,6.106,20.148,18.515,20.148,32.851c0,20.372-16.521,36.892-36.901,36.892c-20.372,0-36.892-16.521-36.892-36.892
		c0-6.442,1.658-12.496,4.552-17.764L0.002,324.261v21.019c0.708-0.043,1.39-0.12,2.107-0.12c22.125,0,40.053,17.945,40.053,40.061
		c0,22.134-17.928,40.062-40.053,40.062c-0.717,0-1.399-0.06-2.107-0.104v35.078c0,8.532,4.041,16.563,10.916,21.633
		c6.866,5.069,15.725,6.571,23.878,4.067l59.078-18.152c-2.047-4.266-3.221-9.015-3.221-14.058c0-18.05,14.629-32.687,32.678-32.687
		c16.382,0,29.897,12.055,32.28,27.764l337.4-103.715c11.287-3.463,18.99-13.895,18.99-25.7v-38.653
		c-2.582,0.742-5.294,1.157-8.118,1.157c-16.305,0-29.517-13.204-29.517-29.508C474.365,236.09,487.577,222.885,503.882,222.885z
		 M211.881,392.605c-20.372,0-36.892-16.529-36.892-36.901c0-20.372,16.52-36.891,36.892-36.891
		c20.381,0,36.909,16.52,36.909,36.891C248.79,376.076,232.262,392.605,211.881,392.605z M409.01,347.284
		c-12.807,0-23.196-10.389-23.196-23.196c0-12.815,10.389-23.195,23.196-23.195c12.806,0,23.195,10.38,23.195,23.195
		C432.205,336.895,421.816,347.284,409.01,347.284z"/>
</g>
</svg>