<?xml version="1.0" encoding="utf-8"?>
<!-- Uploaded to: SVG Repo, www.svgrepo.com, Generator: SVG Repo Mixer Tools -->
<svg fill="#ffffff" width="800px" height="800px" viewBox="0 0 32 32" version="1.1" xmlns="http://www.w3.org/2000/svg">
<title>cheese</title>
<path d="M11.188 11.887c0.217 0.304 0.34 0.676 0.34 1.095 0 1.326-1.234 2.623-2.757 2.897s-2.757-0.58-2.757-1.906c0-0.261 0.049-0.521 0.137-0.773l-5.492 1.432v7.235c0.243-0.116 0.484-0.248 0.748-0.308 1.544-0.355 2.796 0.471 2.796 1.817s-1.253 2.731-2.796 3.086c-0.262 0.060-0.508 0.072-0.748 0.069v2.092l13.516-3.524c-0.355-0.471-0.562-1.035-0.562-1.64 0-1.654 1.54-2.996 3.441-2.996 1.863 0 3.38 1.29 3.438 2.9 0.058 0.016 0.115 0.031 0.173 0.047l10.515-2.709v-14.024l-19.993 5.211zM24.767 19.393c-1.017 0-1.841-0.718-1.841-1.604s0.824-1.604 1.841-1.604 1.841 0.718 1.841 1.604-0.824 1.604-1.841 1.604zM14.346 2.832l-1.022 0.863c1.243 0.64 1.46 1.937 0.481 2.904-0.982 0.97-2.796 1.24-4.052 0.603-0.124-0.063-0.237-0.132-0.34-0.207l-8.368 7.062 28.673-7.525c-3.207-2.792-9.45-4.136-15.372-3.699zM29.718 6.531v0 0z"></path>
</svg>