<?xml version="1.0" ?><!-- Uploaded to: SVG Repo, www.svgrepo.com, Generator: SVG Repo Mixer Tools -->
<svg fill="#000000" width="800px" height="800px" viewBox="0 0 100 100" id="Слой_1" version="1.1" xml:space="preserve" xmlns="http://www.w3.org/2000/svg" xmlns:xlink="http://www.w3.org/1999/xlink"><path d="M92.96,73.881c-0.82,10.48-9.18,15.51-10.88,16.43c-9.05,4.94-24.28,3.22-31.64-7.14c-4.06-5.7-6.1-14.77-2.15-21.05  l0.05-0.1c1.42-2.31,4.71-6.21,10.78-6.34h0.22c2.17,0,4.67,0.66,6.88,1.24c1.55,0.41,2.89,0.76,3.89,0.83  c0.63,0.04,1.53-0.12,2.67-0.32c3.41-0.6,9.1-1.6,14.08,1.92C93.64,64.161,93,73.491,92.96,73.881z"/><path d="M51.51,57.151c-1.95,1.38-3.24,3.09-4.02,4.35l-0.05,0.08c-2.02,3.22-2.58,6.96-2.2,10.62c-0.04,0.02-0.08,0.04-0.11,0.07  c-7.41,6.05-15.78,4.49-19.03,3.54l-0.19-0.05c-10.35-2.58-20.57-13.76-18.69-25.67c1.04-6.56,6-14.1,13.48-15.82  c1.29-0.3,8.03-1.55,13.45,2.99c1.66,1.4,2.89,3.44,3.97,5.24c0.77,1.3,1.44,2.41,2.17,3.14c0.47,0.47,1.29,0.93,2.33,1.52  c3.05,1.71,7.65,4.3,8.85,9.88C51.48,57.081,51.49,57.121,51.51,57.151z"/><path d="M71.83,56.591c-0.59,0.1-1.11,0.17-1.48,0.17c-0.06,0-0.12-0.01-0.17-0.01c-0.28-0.02-0.61-0.06-0.96-0.13  c3.07-7.84,4.34-20.38-6.33-36.26c-0.02-0.04-0.05-0.07-0.09-0.1c0.62-2.46,0.83-4.18,0.88-4.6c0.03-0.28-0.17-0.52-0.44-0.55  c-0.28-0.04-0.52,0.17-0.55,0.44c-0.12,1.07-1.32,10.72-8.05,19.29c-4.21,5.36-10.84,9.35-13.13,10.49  c-0.21-0.14-0.39-0.28-0.51-0.4c-0.33-0.33-0.65-0.76-0.98-1.27c0.19-0.1,0.39-0.21,0.6-0.32c2.39-1.28,6.39-3.41,11.27-8.52  c5.77-6.04,6.87-15.29,5.25-17.81c-0.78-1.22-2.03-1.34-3.03-1.43c-1.31-0.11-2.1-0.19-2.24-1.97c-0.13-1.55,0.6-2.92,2.05-3.84  c1.95-1.25,5.44-1.65,8.82,0.27c2.11,1.19,2.09,3.22,2.08,5.18c-0.01,1.31-0.02,2.55,0.63,3.44l0.28,0.38  c1.6,2.17,5.34,7.23,7.58,16.06C75.7,44.551,73.44,53.161,71.83,56.591z"/><path d="M42.41,15.581c-0.08,0.04-0.16,0.06-0.24,0.06c-0.18,0-0.35-0.1-0.44-0.26c-0.01-0.01-0.71-1.26-1.97-2.41  c-0.21-0.18-0.22-0.5-0.04-0.7c0.19-0.21,0.5-0.22,0.71-0.04c1.39,1.26,2.14,2.61,2.17,2.67C42.74,15.141,42.65,15.441,42.41,15.581  z"/><path d="M43.42,25.111c-1.04,1.23-1.58,1.45-2.4,1.78l-0.26,0.11c-0.06,0.03-0.13,0.04-0.19,0.04c-0.2,0-0.38-0.12-0.46-0.31  c-0.11-0.25,0.01-0.55,0.27-0.65l0.26-0.11c0.75-0.31,1.13-0.47,2.02-1.5c0.18-0.22,0.5-0.24,0.71-0.06  C43.58,24.591,43.6,24.901,43.42,25.111z"/><path d="M56.3,17.551c-0.26-0.41-0.6-0.63-0.98-0.75c-1.33,1.79-6.01,4.5-10.71,4.5c-1.25,0-2.51-0.19-3.7-0.64  c-3.2-1.22-5.39-2.92-7.51-4.56c-1.68-1.31-3.27-2.54-5.21-3.38c-0.26-0.12-0.37-0.41-0.26-0.66c0.11-0.26,0.4-0.37,0.66-0.26  c2.05,0.9,3.69,2.16,5.42,3.51c2.06,1.6,4.2,3.25,7.25,4.41c3.11,1.18,6.6,0.41,9.25-0.78c-1.14-3.52-8.51-14.23-20.66-11.5  c-1.88,0.42-3.52,0.81-4.96,1.15c-6.1,1.43-8.71,2.04-11.42,1.32c0.25,1.26,0.91,2.33,1.96,3.19c2.1,1.69,5.15,2.11,6.6,2.13  c-0.74-0.84-1.53-1.38-2.5-1.72c-0.26-0.09-0.4-0.37-0.31-0.63c0.09-0.27,0.38-0.4,0.64-0.31c3.15,1.11,4.6,3.93,6.94,9.68  c2.45,6.02,11.02,11.63,17.97,9.55c7.08-2.12,6.96-9.58,6.95-9.66c0-0.2,0.12-0.39,0.3-0.47c0.47-0.21,2.88-1.31,4.58-2.91  c0.03-0.03,0.06-0.05,0.09-0.05v-0.01C56.61,18.211,56.47,17.821,56.3,17.551z M39.72,12.271c0.19-0.21,0.5-0.22,0.71-0.04  c1.39,1.26,2.14,2.61,2.17,2.67c0.14,0.24,0.05,0.54-0.19,0.68c-0.08,0.04-0.16,0.06-0.24,0.06c-0.18,0-0.35-0.1-0.44-0.26  c-0.01-0.01-0.71-1.26-1.97-2.41C39.55,12.791,39.54,12.471,39.72,12.271z M31.3,19.081c-0.02,0-0.31,0.05-0.88,0.05  c-0.45,0-1.06-0.03-1.84-0.13c-0.28-0.03-0.47-0.28-0.43-0.56c0.03-0.27,0.28-0.46,0.56-0.43c1.62,0.21,2.41,0.09,2.42,0.09  c0.27-0.05,0.53,0.13,0.57,0.41C31.75,18.781,31.57,19.031,31.3,19.081z M43.42,25.111c-1.04,1.23-1.58,1.45-2.4,1.78l-0.26,0.11  c-0.06,0.03-0.13,0.04-0.19,0.04c-0.2,0-0.38-0.12-0.46-0.31c-0.11-0.25,0.01-0.55,0.27-0.65l0.26-0.11  c0.75-0.31,1.13-0.47,2.02-1.5c0.18-0.22,0.5-0.24,0.71-0.06C43.58,24.591,43.6,24.901,43.42,25.111z"/><path d="M31.7,18.511c0.05,0.27-0.13,0.52-0.4,0.57c-0.02,0-0.31,0.05-0.88,0.05c-0.45,0-1.06-0.03-1.84-0.13  c-0.28-0.03-0.47-0.28-0.43-0.56c0.03-0.27,0.28-0.46,0.56-0.43c1.62,0.21,2.41,0.09,2.42,0.09  C31.4,18.051,31.66,18.231,31.7,18.511z"/></svg>