<?xml version="1.0" encoding="utf-8"?>

<!DOCTYPE svg PUBLIC "-//W3C//DTD SVG 1.1//EN" "http://www.w3.org/Graphics/SVG/1.1/DTD/svg11.dtd">
<!-- Uploaded to: SVG Repo, www.svgrepo.com, Generator: SVG Repo Mixer Tools -->
<svg version="1.1" id="_x32_" xmlns="http://www.w3.org/2000/svg" xmlns:xlink="http://www.w3.org/1999/xlink" fill="#ffffff"
	 viewBox="0 0 512 512"  xml:space="preserve">
<style type="text/css">
	.st0{fill:#ffffff;}
</style>
<g>
	<path class="st0" d="M187.406,0h-59.448c-17.068,0-30.894,13.827-30.894,30.886v74.229h90.342V0z"/>
	<rect x="209.243" class="st0" width="90.341" height="105.115"/>
	<path class="st0" d="M411.772,30.886C411.772,13.827,397.936,0,380.877,0H321.43v105.115h90.342V30.886z"/>
	<path class="st0" d="M488.914,316.488l-43.841-145.78c-1.602-5.376-6.604-9.096-12.243-9.096h-21.097v-33.405h-90.323v68.656
		l-21.854,8.721v-77.377h-90.323v85.77l-21.864-11.597v-74.173H97.056v37.639H83.463c-5.387,0-10.127,3.326-12.057,8.328
		L23.332,302.38c-1.537,4.103-0.834,8.656,1.733,12.188c2.623,3.457,6.792,5.378,11.148,5.124l47.251-3.204v162.819
		c0,18.08,14.613,32.693,32.693,32.693H394.75c18.07,0,32.693-14.613,32.693-32.693V327.644l47.822,5.321
		c4.234,0.44,8.525-1.293,11.213-4.553C489.233,325.134,490.198,320.582,488.914,316.488z M238.657,280.328l-26.155,1.789
		l-3.269,0.196l-21.864,1.48l-90.314,6.08l-13.592,0.908l-29.106,1.986l37.948-101.282h4.75h15.25l75.063,39.868l30.07,16.028
		l16.599,8.777h0.066l0.449,0.263l3.017,1.602l3.972,2.117l27.624,14.679l5.771,3.072L238.657,280.328z M333.149,290.332
		c0.702-3.212,14.379,0.469,24.918,3.654L333.149,290.332z M427.444,301.743l-15.71-1.733l-47.212-5.302l-40.731-19.887l-2.38-1.283
		l-21.854-11.607l-10.389-5.508l-20.44-10.838l30.567-12.244h0.262v-0.13l21.854-8.712l90.323-36.094l2.83-1.153h8.712
		l35.512,118.015L427.444,301.743z"/>
</g>
</svg>