<?xml version="1.0" encoding="iso-8859-1"?>
<!-- Uploaded to: SVG Repo, www.svgrepo.com, Generator: SVG Repo Mixer Tools -->
<svg fill="#ffffff" height="800px" width="800px" version="1.1" id="Layer_1" xmlns="http://www.w3.org/2000/svg" xmlns:xlink="http://www.w3.org/1999/xlink" 
	 viewBox="0 0 512 512" xml:space="preserve">
<g>
	<g>
		<g>
			<path d="M403.071,458.192l-17.216-240.876c-1.721-24.4-20.714-43.703-44.52-46.333V128c11.782,0,21.333-9.551,21.333-21.333
				C362.669,47.759,314.91,0,256.002,0S149.335,47.759,149.335,106.667c0,11.782,9.551,21.333,21.333,21.333v42.985
				c-23.812,2.636-42.803,21.932-44.525,46.351l-17.215,240.855c-2.077,29.075,20.952,53.809,50.1,53.809h193.941
				C382.119,512,405.148,487.267,403.071,458.192z M256.002,42.667c27.863,0,51.571,17.81,60.358,42.667H195.645
				C204.431,60.477,228.139,42.667,256.002,42.667z M213.335,170.667v-42.665h85.333v42.665H213.335z M352.971,469.333H159.029
				c-4.387,0-7.855-3.725-7.542-8.101l17.216-240.874c0.28-3.966,3.566-7.025,7.542-7.025h15.715c0.014,0,0.028,0.002,0.042,0.002
				h128c0.014,0,0.028-0.002,0.042-0.002h15.732c3.956,0,7.241,3.06,7.52,7.005l17.217,240.895
				C360.826,465.609,357.358,469.333,352.971,469.333z"/>
			<path d="M284.454,373.128c-7.787,6.965-17.79,10.865-28.443,10.865c-23.567,0-42.667-19.099-42.667-42.667
				s19.099-42.667,42.667-42.667c10.655,0,20.65,3.9,28.427,10.872c8.773,7.864,22.261,7.128,30.125-1.645
				c7.864-8.773,7.128-22.261-1.645-30.125c-15.53-13.922-35.638-21.768-56.906-21.768c-47.131,0-85.333,38.202-85.333,85.333
				s38.202,85.333,85.333,85.333c21.255,0,41.356-7.837,56.89-21.732c8.781-7.855,9.532-21.342,1.677-30.123
				C306.722,366.024,293.235,365.273,284.454,373.128z"/>
		</g>
	</g>
</g>
</svg>