<?xml version="1.0" encoding="iso-8859-1"?>
<!-- Uploaded to: SVG Repo, www.svgrepo.com, Generator: SVG Repo Mixer Tools -->
<svg fill="#ffffff" height="800px" width="800px" version="1.1" id="Layer_1" xmlns="http://www.w3.org/2000/svg" xmlns:xlink="http://www.w3.org/1999/xlink" 
	 viewBox="0 0 300.299 300.299" xml:space="preserve">
<g>
	<g>
		<path d="M296.301,3.998c-5.331-5.331-13.973-5.331-19.304,0l-15.475,15.475c-12.961-8.726-28.99-13.586-45.691-13.586
			c-21.288,0-40.865,7.77-55.198,21.892C121.186,61.612,30.147,139.745,27.01,142.881C9.594,160.299,0.001,183.455,0,208.087
			c0,24.579,9.552,47.687,26.897,65.087c0.014,0.014,0.025,0.029,0.038,0.043c0.008,0.008,0.018,0.015,0.026,0.024
			c0.016,0.016,0.032,0.032,0.048,0.049c17.417,17.417,40.574,27.01,65.207,27.011c0.002,0,0.001,0,0.002,0
			c24.628,0,47.785-9.591,65.208-27.012c3.153-3.158,81.27-94.18,115.096-133.62c14.499-14.715,22.265-34.829,21.877-56.706
			c-0.286-16.132-5.132-31.62-13.575-44.182l15.477-15.477C301.632,17.972,301.632,9.329,296.301,3.998z M27.3,208.087
			c0.001-17.282,6.708-33.533,18.89-45.778c4.528-4.16,70.505-60.863,120.579-103.826l1.296,15.478
			c0.556,6.64,5.825,11.908,12.464,12.464l12.817,1.073L37.625,243.222C30.913,232.839,27.3,220.745,27.3,208.087z M137.994,254.113
			C125.747,266.295,109.498,273,92.218,273c-12.732,0-24.897-3.654-35.32-10.441l155.756-155.757l1.074,12.824
			c0.556,6.639,5.824,11.907,12.463,12.462l15.736,1.317C198.952,183.493,142.161,249.577,137.994,254.113z M262.095,107.699
			l-22.126-1.853l-2.565-30.637c-0.556-6.639-5.825-11.908-12.464-12.463l-30.632-2.562l-1.828-21.832
			c7-3.369,14.943-5.164,23.352-5.164c14.228-0.002,28.06,5.337,37.001,14.279C266.89,61.525,271.949,87.286,262.095,107.699z"/>
	</g>
</g>
</svg>