<?xml version="1.0" encoding="iso-8859-1"?>
<!-- Uploaded to: SVG Repo, www.svgrepo.com, Generator: SVG Repo Mixer Tools -->
<svg fill="#FFFFFF" height="800px" width="800px" version="1.1" id="Layer_1" xmlns="http://www.w3.org/2000/svg" xmlns:xlink="http://www.w3.org/1999/xlink" 
	 viewBox="0 0 512 512" xml:space="preserve">
<g>
	<g>
		<path d="M62.061,356.849v131.879c0,12.853,10.42,23.273,23.273,23.273h341.333c12.853,0,23.273-10.42,23.273-23.273V356.849
			H62.061z"/>
	</g>
</g>
<g>
	<g>
		<path d="M457.697,217.212h-27.276c2.583-7.284,4.003-15.115,4.003-23.273c0-38.498-31.319-69.818-69.818-69.818h-0.286
			L274.339,8.946C269.928,3.3,263.163,0,256,0s-13.928,3.3-18.339,8.946l-89.982,115.175h-0.286
			c-38.498,0-69.818,31.32-69.818,69.818c0,8.158,1.42,15.988,4.003,23.273H54.303c-12.853,0-23.273,10.42-23.273,23.273v69.818
			H480.97v-69.818C480.97,227.632,470.55,217.212,457.697,217.212z"/>
	</g>
</g>
</svg>