<?xml version="1.0" encoding="iso-8859-1"?>
<!-- Uploaded to: SVG Repo, www.svgrepo.com, Generator: SVG Repo Mixer Tools -->
<svg fill="#ffffff" height="800px" width="800px" version="1.1" id="Layer_1" xmlns="http://www.w3.org/2000/svg" xmlns:xlink="http://www.w3.org/1999/xlink" 
	 viewBox="0 0 512.001 512.001" xml:space="preserve">
<g>
	<g>
		<path d="M414.156,222.42c-2.849-2.849-5.447-5.856-7.804-9.009c-2.409-3.237-4.546-6.621-6.422-10.13
			c-2.504,0.838-4.976,1.582-7.417,2.231c-8.286,2.21-16.164,3.321-23.591,3.321c-5.709,0-11.23-0.66-16.405-1.959l-10.549-2.65
			l-6.663-8.601c-5.709-7.385-9.931-16.321-12.644-26.734c-1.467-5.615-2.493-11.659-3.069-18.133
			c-0.388-0.031-0.775-0.063-1.163-0.105c-6.704-0.597-12.791-2.011-18.165-3.813c-25.917,25.697-58.915,46.125-100.137,62.11
			c-50.252,19.495-102.033,42.144-134.508,85.545c-18.437,24.628-28.284,56.454-27.74,89.599
			c0.555,34.025,12.141,65.368,32.632,88.237c19.055,21.255,44.291,34.559,73.005,38.446c6.034,0.817,12.225,1.226,18.521,1.226
			c19.841,0,40.782-4.033,61.513-11.921c59.586-22.68,99.373-80.558,130.433-134.183c23.172-40.017,43.799-84.706,64.342-139.578
			C416.953,225.123,415.559,223.824,414.156,222.42z M110.706,387.088l-31.427,0.513c-0.031-1.959-0.052-19.768,8.862-40.604
			c8.475-19.768,26.807-45.905,66.081-58.14l9.344,30.013C110.465,335.401,110.695,386.574,110.706,387.088z"/>
	</g>
</g>
<g>
	<g>
		<path d="M449.962,75.163c3.53-4.169,6.537-8.621,9.093-13.199c2.807-5.018,5.07-10.193,6.893-15.305
			c8.328-23.225,7.637-45.234,7.584-46.659l-31.406,1.215c0.01,0.22,0.293,12.885-3.405,27.237
			c-1.257,4.903-2.975,9.994-5.332,14.855c-2.305,4.756-5.206,9.292-8.883,13.21c-0.283-0.126-0.566-0.251-0.859-0.377
			c-0.503-0.209-1.006-0.43-1.529-0.639c-0.262-0.105-0.524-0.21-0.796-0.314c-0.534-0.21-1.09-0.43-1.655-0.639
			c-0.566-0.21-1.142-0.43-1.729-0.639c-0.587-0.21-1.194-0.409-1.812-0.618c-0.618-0.21-1.247-0.409-1.886-0.608
			c-0.639-0.199-1.299-0.398-1.959-0.587c-0.67-0.199-1.341-0.388-2.032-0.566c-0.681-0.189-1.383-0.367-2.095-0.534
			c-1.163-0.283-2.367-0.545-3.593-0.796c-0.461-0.094-0.922-0.189-1.393-0.272c-0.566-0.105-1.131-0.209-1.708-0.304
			c0,0,0,0-0.01,0c-0.765-0.126-1.55-0.251-2.347-0.367c0,0,0,0-0.01,0c-0.786-0.105-1.592-0.21-2.399-0.304h-0.01
			c-0.807-0.094-1.634-0.178-2.462-0.251h-0.01c-0.828-0.073-1.666-0.136-2.514-0.178c0,0,0,0-0.01,0
			c-0.849-0.052-1.697-0.094-2.567-0.115c0,0,0,0-0.01,0c-0.859-0.031-1.729-0.042-2.608-0.042h-0.01
			c-4.264,0-8.695,0.314-13.283,1.027c-0.744,0.115-1.498,0.241-2.252,0.388c-1.1,0.189-2.21,0.419-3.321,0.67
			c-0.702,0.157-1.414,0.325-2.116,0.503c-1.624,0.409-3.258,0.87-4.903,1.393c-1.299,0.398-2.608,0.849-3.928,1.33
			c-8.119,2.986-16.499,7.406-24.932,13.702c-0.995,0.733-1.99,1.509-2.975,2.294c-1.488,1.184-2.986,2.441-4.484,3.75
			c-0.995,0.88-1.99,1.781-2.975,2.713c-0.503,0.461-0.995,0.932-1.498,1.414c-0.492,0.492-0.995,0.974-1.488,1.467
			c-1.498,1.488-2.986,3.027-4.463,4.641c-0.985,1.079-1.969,2.179-2.965,3.321c0,0.01,0,0.01,0,0.01
			c-0.367,0.43-0.744,0.859-1.11,1.299c-1.11,1.299-2.221,2.65-3.321,4.033c-3.928,4.934-7.836,10.381-11.68,16.384
			c0,0,11.597,10.13,28.955,10.811c0.608,0.031,1.226,0.042,1.854,0.042c1.215,0,2.462-0.052,3.729-0.147
			c1.268-0.105,2.556-0.251,3.866-0.471c2.629-0.43,5.353-1.11,8.15-2.074c0.932-0.325,1.875-0.67,2.818-1.069
			c0.953-0.388,1.907-0.807,2.87-1.268c1.875-0.89,3.782-1.917,5.699-3.101c0,0-8.548,44.312,7.427,64.96
			c2.797,0.702,5.741,1.016,8.758,1.016c0.513,0,1.027-0.01,1.54-0.031c0.251,0,0.503-0.01,0.754-0.031
			c0.283-0.01,0.566-0.021,0.849-0.042c0.23-0.021,0.461-0.031,0.691-0.052c0.65-0.052,1.299-0.115,1.948-0.199
			c0.388-0.042,0.775-0.094,1.163-0.147c2.986-0.409,6.003-1.058,8.988-1.875c0.524-0.147,1.037-0.293,1.561-0.44
			c2.326-0.681,4.63-1.456,6.872-2.294c0.45-0.168,0.89-0.335,1.32-0.503c0.639-0.251,1.257-0.492,1.886-0.754
			c0.618-0.251,1.236-0.503,1.844-0.765c0.608-0.262,1.215-0.524,1.812-0.786c0.597-0.262,1.184-0.524,1.76-0.786
			c2.043-0.943,4.002-1.907,5.835-2.849c0.608-0.314,1.205-0.618,1.791-0.932c1.76-0.922,3.384-1.823,4.84-2.661
			c0.492-0.283,0.953-0.555,1.404-0.817c0.283-0.168,0.555-0.325,0.817-0.482c0.377-0.22,0.733-0.44,1.079-0.65
			c0.398-0.241,0.775-0.471,1.121-0.681c0.335-0.22,0.66-0.419,0.953-0.597c0.042-0.031,0.084-0.052,0.115-0.073
			c0.272-0.178,0.524-0.335,0.765-0.482c1.309-0.838,2.022-1.33,2.022-1.33c-0.681,4.903-0.733,9.418-0.314,13.556
			c0.932,9.418,4.295,16.908,8.328,22.68c7.668,11.01,17.725,15.745,17.725,15.745C494.001,140.72,468.923,95.821,449.962,75.163z"
			/>
	</g>
</g>
</svg>