<?xml version="1.0" encoding="iso-8859-1"?>
<!-- Uploaded to: SVG Repo, www.svgrepo.com, Generator: SVG Repo Mixer Tools -->
<!DOCTYPE svg PUBLIC "-//W3C//DTD SVG 1.1//EN" "http://www.w3.org/Graphics/SVG/1.1/DTD/svg11.dtd">
<svg fill="#FFFFFF" height="800px" width="800px" version="1.1" id="Capa_1" xmlns="http://www.w3.org/2000/svg" xmlns:xlink="http://www.w3.org/1999/xlink" 
	 viewBox="0 0 456.478 456.478" xml:space="preserve">
<path d="M382.91,221.949c-3.697-2.893-9.04-2.24-11.932,1.458c-5.021,6.419-12.242,10.498-20.332,11.486
	c-1.36,0.166-2.716,0.234-4.063,0.221c5.663-4.636,11.512-10.706,16.888-17.579c2.893-3.697,2.24-9.04-1.458-11.932
	s-9.04-2.24-11.932,1.458c-7.766,9.928-15.159,16.065-19.83,18.889c1.617-5.213,5.794-13.866,13.561-23.794
	c2.893-3.697,2.24-9.04-1.458-11.932c-3.698-2.893-9.04-2.24-11.932,1.458c-4.968,6.351-9.652,13.552-12.988,20.593
	c-2.296-8.882-0.594-18.697,5.482-26.465c2.893-3.697,2.24-9.04-1.458-11.932s-9.04-2.24-11.932,1.458
	c-13.879,17.741-13.11,42.339,0.49,59.149l-87.664,97.17V184.476l34.159-13.849c4.351-1.764,6.448-6.721,4.684-11.071
	s-6.719-6.447-11.071-4.684l-27.772,11.259v-20.169c69.292-4.248,124.87-60.04,128.774-129.423c3.348-1.141,5.76-4.306,5.76-8.04
	c0-4.694-3.806-8.5-8.5-8.5h-11.333c-4.694,0-8.5,3.806-8.5,8.5c0,3.654,2.31,6.76,5.545,7.961
	c-2.202,34.608-19.075,65.29-44.457,85.88c16.474-23.614,26.056-53.769,27.372-85.943c3.146-1.246,5.374-4.309,5.374-7.899
	c0-4.694-3.806-8.5-8.5-8.5h-11.333c-4.694,0-8.5,3.806-8.5,8.5c0,3.799,2.494,7.015,5.933,8.104
	c-1.931,41.608-19.056,77.526-43.691,97.026c1.748-3.211,3.422-6.639,5.009-10.291c10.244-23.561,16.21-54.166,17.026-86.873
	c3.242-1.198,5.557-4.308,5.557-7.966c0-4.694-3.806-8.5-8.5-8.5h-11.333c-4.694,0-8.5,3.806-8.5,8.5
	c0,3.74,2.419,6.909,5.776,8.046c-1.196,45.508-12.738,81.305-26.827,99.504c1.024-4.384,1.982-9.27,2.885-14.707
	c3.813-22.961,6.037-52.846,6.348-84.842c3.291-1.172,5.652-4.307,5.652-8c0-4.694-3.806-8.5-8.5-8.5h-11.334
	c-4.694,0-8.5,3.806-8.5,8.5c0,3.705,2.375,6.848,5.682,8.011c-0.576,59.584-7.683,96.693-12.882,109.199
	c-5.205-12.52-12.322-49.693-12.885-109.39c3.038-1.296,5.168-4.309,5.168-7.821c0-4.694-3.806-8.5-8.5-8.5h-11.334
	c-4.694,0-8.5,3.806-8.5,8.5c0,3.885,2.61,7.154,6.169,8.168c0.317,31.933,2.539,61.754,6.346,84.674
	c0.916,5.513,1.888,10.46,2.928,14.89c-4.016-5.167-7.823-11.777-11.255-19.672c-9.36-21.53-14.827-49.776-15.612-80.205
	c3.085-1.275,5.257-4.311,5.257-7.856c0-4.694-3.806-8.5-8.5-8.5h-11.334c-4.694,0-8.5,3.806-8.5,8.5
	c0,3.852,2.565,7.102,6.078,8.145c0.833,32.639,6.795,63.176,17.02,86.694c1.587,3.651,3.261,7.079,5.009,10.291
	c-24.672-19.529-41.811-55.525-43.7-97.211c3.173-1.233,5.426-4.309,5.426-7.918c0-4.694-3.806-8.5-8.5-8.5h-11.334
	c-4.694,0-8.5,3.806-8.5,8.5c0,3.786,2.477,6.991,5.898,8.091c1.346,32.101,10.922,62.183,27.363,85.75
	c-25.431-20.63-42.32-51.39-44.469-86.081c2.969-1.325,5.042-4.298,5.042-7.76c0-4.694-3.806-8.5-8.5-8.5H78.804
	c-4.694,0-8.5,3.806-8.5,8.5c0,3.927,2.667,7.223,6.286,8.198c3.979,69.31,59.525,125.02,128.764,129.264v20.169l-27.773-11.259
	c-4.351-1.762-9.307,0.333-11.071,4.684c-1.764,4.35,0.333,9.307,4.684,11.071l34.16,13.849v102.978l-15.466-17.582
	c-3.101-3.525-8.471-3.869-11.996-0.768c-3.525,3.101-3.869,8.471-0.768,11.996l28.23,32.091v134.787c0,4.694,3.806,8.5,8.5,8.5
	s8.5-3.806,8.5-8.5v-33.844l19.497-18.484c3.407-3.23,3.55-8.61,0.32-12.017c-3.229-3.407-8.61-3.55-12.017-0.32l-7.801,7.396
	v-33.676l54.588-60.508l27.2-2.062c4.681-0.355,8.188-4.437,7.833-9.118s-4.443-8.196-9.118-7.833l-9.404,0.713l29.448-32.641
	c7.449,4.379,15.744,6.517,23.996,6.517c14.125,0,28.114-6.256,37.472-18.218C387.261,230.184,386.608,224.842,382.91,221.949z"/>
</svg>