<?xml version="1.0" encoding="utf-8"?><!-- Uploaded to: SVG Repo, www.svgrepo.com, Generator: SVG Repo Mixer Tools -->
<svg width="800px" height="800px" viewBox="0 0 24 24" fill="#ffffff" xmlns="http://www.w3.org/2000/svg">
<path d="M11.999 16.358L11.9867 16.2404C11.7822 14.8229 10.4568 13.8379 9.02627 14.0403L9.00656 14.2232C8.99343 14.4067 9 14.5911 9.02633 14.7735C9.23079 16.191 10.5562 17.176 11.9867 16.9736L11.999 16.85M11.999 16.358L11.9893 16.4887C11.9845 16.5949 11.9863 16.7023 11.995 16.8106L11.999 16.85M11.999 16.358L12.0064 16.4233C12.0152 16.5456 12.0152 16.6684 12.0064 16.7907L11.999 16.85M11.999 16.358L12.0013 16.3305C12.125 15.1784 13.0228 14.2119 14.2333 14.0407C14.4173 14.0146 14.6035 14.0081 14.7887 14.0212L14.9733 14.0407C15.1778 15.4582 14.1839 16.7713 12.7534 16.9737C12.5693 16.9997 12.3832 17.0062 12.198 16.9932L12.0134 16.9736L11.999 16.85M6 9H12H18V17L19.1917 18.7875C19.3448 19.0172 19.2827 19.3277 19.053 19.4809C18.9246 19.5664 18.7639 19.588 18.6175 19.5392L17 19C13.7903 20.2839 10.2097 20.2839 7 19L5.38249 19.5392C5.12051 19.6265 4.83735 19.4849 4.75003 19.2229C4.70124 19.0766 4.72276 18.9159 4.80835 18.7875L6 17V9ZM11.9866 11C13.1427 11.8592 13.3771 13.4842 12.5102 14.6296C12.3986 14.777 12.2716 14.9121 12.1315 15.0326L11.9869 15.1481C10.8308 14.2889 10.5964 12.6639 11.4633 11.5185C11.6121 11.322 11.7883 11.1474 11.9866 11ZM18 7C18.5523 7 19 7.44772 19 8V9H5V8C5 7.44772 5.44771 7 6 7H18ZM12 3C14.2971 4.23414 15.8027 5.56761 16.5168 7.0004H7.48318C8.19728 5.56761 9.70288 4.23414 12 3Z" stroke="#000000" stroke-linejoin="round"/>
</svg>