<?xml version="1.0" encoding="iso-8859-1"?>
<!-- Uploaded to: SVG Repo, www.svgrepo.com, Generator: SVG Repo Mixer Tools -->
<svg fill="#ffffff" height="800px" width="800px" version="1.1" id="Layer_1" xmlns="http://www.w3.org/2000/svg" xmlns:xlink="http://www.w3.org/1999/xlink" 
	 viewBox="0 0 511.999 511.999" xml:space="preserve">
<g>
	<g>
		<path d="M440.325,172.19c0.111-1.872,0.167-3.747,0.167-5.621c0-52.311-42.557-94.868-94.868-94.868
			c-4.082,0-8.144,0.26-12.167,0.777c-8.68-18.87-21.92-35.214-38.87-47.838C272.944,8.52,247.204,0,220.15,0
			C151.366,0,95.407,55.96,95.407,124.743c0,3.062,0.112,6.121,0.335,9.17c-20.437,4.437-39.147,14.803-53.972,30.132
			c-19.354,20.014-30.013,46.373-30.013,74.222c0,42.224,24.658,79.952,62.421,97.161c2.934,18.396,11.659,35.326,25.201,48.557
			c16.401,16.025,38.063,24.85,60.996,24.85c20.367,0,39.895-7.052,55.506-19.931v64.391l-58.704,58.704h197.647l-58.704-58.704
			v-64.39c15.611,12.879,35.139,19.931,55.506,19.931c22.099,0,43.183-8.276,59.371-23.304
			c12.876-11.953,21.737-27.309,25.653-44.152c37.024-11.07,63.592-45.66,63.592-85.189
			C500.242,217.898,475.443,184.37,440.325,172.19z M112.716,242.628c-9.496,0-17.194-7.698-17.194-17.194
			s7.698-17.194,17.194-17.194s17.194,7.698,17.194,17.194S122.212,242.628,112.716,242.628z M181.492,345.792
			c-9.496,0-17.194-7.698-17.194-17.194c0-9.496,7.698-17.194,17.194-17.194c9.496,0,17.194,7.698,17.194,17.194
			C198.686,338.093,190.988,345.792,181.492,345.792z M181.492,150.926c-9.496,0-17.194-7.698-17.194-17.194
			s7.698-17.194,17.194-17.194c9.496,0,17.194,7.698,17.194,17.194S190.988,150.926,181.492,150.926z M255.999,254.09
			c-9.496,0-17.194-7.698-17.194-17.194s7.698-17.194,17.194-17.194c9.496,0,17.194,7.698,17.194,17.194
			S265.495,254.09,255.999,254.09z M330.507,345.792c-9.496,0-17.194-7.698-17.194-17.194c0-9.496,7.698-17.194,17.194-17.194
			s17.194,7.698,17.194,17.194C347.701,338.093,340.002,345.792,330.507,345.792z M330.507,173.852
			c-9.496,0-17.194-7.698-17.194-17.194s7.698-17.194,17.194-17.194s17.194,7.698,17.194,17.194S340.002,173.852,330.507,173.852z
			 M399.283,254.09c-9.496,0-17.194-7.698-17.194-17.194s7.698-17.194,17.194-17.194s17.194,7.698,17.194,17.194
			S408.778,254.09,399.283,254.09z"/>
	</g>
</g>
</svg>