<?xml version="1.0" encoding="iso-8859-1"?>
<!-- Uploaded to: SVG Repo, www.svgrepo.com, Generator: SVG Repo Mixer Tools -->
<svg fill="#FFFFFF" height="800px" width="800px" version="1.1" id="Layer_1" xmlns="http://www.w3.org/2000/svg" xmlns:xlink="http://www.w3.org/1999/xlink" 
	 viewBox="0 0 512 512" xml:space="preserve">
<g>
	<g>
		<g>
			<path d="M227.132,34.278c-4.676-0.87-9.096,2.21-9.941,6.835c-11.733,63.599-36.139,105.847-59.742,146.697
				C129.135,236.809,102.4,283.085,102.4,358.4c0,45.261,19.823,87.996,54.391,117.274c1.604,1.357,3.558,2.022,5.513,2.022
				c2.415,0,4.83-1.024,6.511-3.021c3.046-3.593,2.603-8.977-0.99-12.023c-30.737-26.027-48.358-64.026-48.358-104.252
				c0-70.741,25.626-115.089,52.753-162.048c24.329-42.103,49.485-85.641,61.756-152.141
				C234.829,39.578,231.765,35.132,227.132,34.278z"/>
			<path d="M368.239,367.036c-4.668-0.691-9.011,2.466-9.745,7.125c-1.911,12.322-7.518,22.707-7.578,22.81
				c-2.253,4.13-0.742,9.31,3.388,11.571c1.297,0.717,2.705,1.058,4.096,1.058c3.004,0,5.922-1.596,7.475-4.412
				c0.282-0.529,7.091-13.013,9.489-28.407C376.09,372.122,372.898,367.761,368.239,367.036z"/>
			<path d="M356.966,276.873c-2.62-3.925-7.919-4.992-11.836-2.372s-4.983,7.919-2.364,11.836
				c15.309,22.963,15.633,46.268,15.633,46.464c0,4.719,3.814,8.533,8.533,8.533c4.71,0,8.533-3.814,8.533-8.533
				C375.467,331.657,375.253,304.307,356.966,276.873z"/>
			<path d="M425.822,184.073c-42.035-47.249-85.504-96.111-101.726-177.212c-0.922-4.617-5.393-7.62-10.044-6.69
				c-4.617,0.922-7.612,5.419-6.69,10.044c17.126,85.632,64.188,138.53,105.702,185.207c43.93,49.374,81.869,92.023,81.869,162.978
				c0,75.29-61.252,136.533-136.533,136.533c-8.943,0-34.901-1.382-47.386-7.629c-2.116-1.058-4.582-1.186-6.801-0.367
				c-14.216,5.308-30.447,7.996-48.213,7.996c-17.92,0-34.133-2.679-48.196-7.979c-1.826-0.691-3.84-0.725-5.709-0.111
				c-23.893,7.962-48.256,8.09-48.495,8.09c-75.29,0-136.533-61.244-136.533-136.533c0-70.955,37.931-113.596,81.86-162.978
				c38.477-43.255,82.091-92.279,101.811-168.175c1.408-5.461,2.62-10.18,12.595-10.18h60.612
				c9.66,82.082,39.45,133.632,65.826,179.285c27.128,46.959,52.762,91.307,52.762,162.048c0,40.329-17.698,78.387-48.555,104.414
				c-3.601,3.038-4.062,8.422-1.016,12.023c3.029,3.601,8.405,4.062,12.023,1.024c34.705-29.286,54.613-72.09,54.613-117.461
				c0-75.315-26.743-121.6-55.049-170.59c-27.614-47.787-56.175-97.203-64.461-180.122C289.656,3.328,285.978,0,281.6,0h-68.267
				c-23.202,0-27.665,17.306-29.244,23.45c-18.56,71.424-58.897,116.779-97.911,160.631C41.856,233.899,0,280.951,0,358.4
				C0,443.102,68.898,512,153.6,512c1.058,0,25.438-0.094,51.029-8.047C219.93,509.295,237.193,512,256,512
				c18.458,0,35.541-2.645,50.842-7.876C326.033,511.906,357.009,512,358.4,512c84.693,0,153.6-68.898,153.6-153.6
				C512,280.951,470.135,233.899,425.822,184.073z"/>
			<path d="M113.485,226.995l12.8-17.067c2.833-3.772,2.074-9.122-1.698-11.947c-3.78-2.842-9.131-2.065-11.947,1.698l-12.8,17.067
				c-2.833,3.772-2.065,9.122,1.707,11.947c1.536,1.161,3.328,1.707,5.111,1.707C109.252,230.4,111.812,229.222,113.485,226.995z"/>
			<path d="M180.634,217.139c-17.502,26.249-26.24,52.147-26.598,53.231c-1.485,4.471,0.922,9.301,5.393,10.795
				c0.896,0.299,1.809,0.435,2.705,0.435c3.567,0,6.895-2.253,8.09-5.828c0.085-0.239,8.431-24.9,24.61-49.169
				c2.611-3.917,1.553-9.216-2.372-11.836C188.535,212.156,183.245,213.214,180.634,217.139z"/>
			<path d="M427.836,430.891c-5.111,8.738-13.901,13.943-13.961,13.986c-4.079,2.347-5.487,7.561-3.14,11.648
				c1.579,2.748,4.446,4.275,7.407,4.275c1.442,0,2.901-0.367,4.241-1.135c0.521-0.299,12.715-7.407,20.173-20.147
				c2.389-4.07,1.024-9.301-3.046-11.674C435.422,425.438,430.217,426.829,427.836,430.891z"/>
			<path d="M49.152,324.71c-4.48-1.502-9.301,0.93-10.795,5.393c-9.318,27.981-0.384,55.441,0,56.602
				c1.195,3.576,4.523,5.837,8.098,5.837c0.896,0,1.801-0.145,2.697-0.444c4.471-1.493,6.895-6.323,5.402-10.795
				c-0.077-0.23-7.552-23.159,0-45.798C56.047,331.034,53.623,326.204,49.152,324.71z"/>
			<path d="M461.235,326.972c1.195,3.576,4.523,5.828,8.098,5.828c0.896,0,1.809-0.136,2.705-0.435
				c4.463-1.493,6.878-6.323,5.385-10.795c-0.358-1.084-9.097-26.982-26.59-53.231c-2.62-3.925-7.919-4.992-11.836-2.372
				c-3.917,2.62-4.983,7.919-2.364,11.836C452.813,302.071,461.158,326.733,461.235,326.972z"/>
			<path d="M251.614,155.008l4.267-25.6c0.776-4.651-2.364-9.045-7.014-9.822c-4.676-0.785-9.045,2.372-9.822,7.014l-4.267,25.6
				c-0.768,4.651,2.372,9.045,7.014,9.822c0.478,0.077,0.947,0.111,1.417,0.111C247.305,162.133,250.914,159.181,251.614,155.008z"
				/>
			<path d="M238.925,452.267c0.683,0,1.382-0.077,2.074-0.247c4.574-1.143,7.356-5.777,6.212-10.351
				c-0.085-0.333-8.277-33.493-8.277-66.202c0-4.71-3.823-8.533-8.533-8.533c-4.719,0-8.533,3.823-8.533,8.533
				c0,34.79,8.422,68.907,8.781,70.34C231.62,449.681,235.102,452.267,238.925,452.267z"/>
			<path d="M230.485,186.53c-8.525,59.648-8.619,111.625-8.619,112.137c0,4.719,3.814,8.533,8.533,8.533
				c4.71,0,8.533-3.814,8.533-8.533c0-0.503,0.102-51.337,8.439-109.722c0.674-4.668-2.569-8.986-7.236-9.651
				C235.443,178.628,231.151,181.862,230.485,186.53z"/>
		</g>
	</g>
</g>
</svg>