<?xml version="1.0" encoding="iso-8859-1"?>
<!-- Uploaded to: SVG Repo, www.svgrepo.com, Generator: SVG Repo Mixer Tools -->
<!DOCTYPE svg PUBLIC "-//W3C//DTD SVG 1.1//EN" "http://www.w3.org/Graphics/SVG/1.1/DTD/svg11.dtd">
<svg fill="#FFFFFF" height="800px" width="800px" version="1.1" id="Capa_1" xmlns="http://www.w3.org/2000/svg" xmlns:xlink="http://www.w3.org/1999/xlink" 
	 viewBox="0 0 50.526 50.526" xml:space="preserve">
<g>
	<path d="M41.536,8.881C35.726,3.07,29.249,0,22.804,0c-2.604,0-5.2,0.501-7.714,1.489l-1.138,0.447l0.665,1.027
		c3.907,6.032,7.863,7.745,10.255,8.186c-5.311,7.435-2.942,13.956-2.379,15.259l0.157,0.363l0.363,0.157
		c0.54,0.233,2.517,0.996,5.297,0.996c2.466,0,6.081-0.62,9.963-3.379c0.465,2.501,2.344,6.831,9.328,10.969l1.026,0.608l0.42-1.117
		C52.327,26.281,49.659,17.003,41.536,8.881z"/>
	<path d="M37.137,27.607c-3.477,1.878-6.634,2.317-8.827,2.317c-3.074,0-5.283-0.812-6.09-1.16l-1.092-0.473l-0.472-1.09
		c-0.555-1.282-2.868-7.552,1.146-14.92c-2.391-1.037-5.218-3.095-8.012-7.001c-1.673,1.043-3.292,2.341-4.838,3.887
		c-4.396,4.396-7.499,11.885-8.516,20.549c-0.461,3.924-0.42,7.577,0.056,10.59c0.626-5.828,4.313-13.712,10.012-17.203
		c0.473-0.288,1.087-0.141,1.375,0.33c0.289,0.471,0.141,1.087-0.33,1.375c-5.015,3.071-8.557,10.43-9.084,15.769l0.001,4.66
		l0.205-0.966c0.648-3.379,4.207-9.267,8.272-12.282c0.442-0.329,1.068-0.237,1.398,0.207c0.329,0.443,0.236,1.069-0.207,1.398
		c-3.532,2.621-6.934,8.104-7.503,11.072L4.22,46.615H7.47c5.437,0.271,14.267-3.661,17.618-9.137
		c0.288-0.47,0.902-0.618,1.375-0.33c0.471,0.288,0.619,0.903,0.33,1.375C23.159,44.46,14.099,48.629,8.042,48.629
		c-0.211,0-0.418-0.005-0.621-0.015l-2.101,0c2.379,1.243,5.845,1.912,10.079,1.912c0.001,0,0,0,0.001,0
		c8.344,0,19.568-2.806,25.837-9.074c1.607-1.607,2.945-3.299,4.009-5.053C40.612,33.372,38.275,30.242,37.137,27.607z"/>
</g>
</svg>