<?xml version="1.0" encoding="utf-8"?>

<!DOCTYPE svg PUBLIC "-//W3C//DTD SVG 1.1//EN" "http://www.w3.org/Graphics/SVG/1.1/DTD/svg11.dtd">
<!-- Uploaded to: SVG Repo, www.svgrepo.com, Generator: SVG Repo Mixer Tools -->
<svg fill="#ffffff" version="1.1" id="Warstwa_1" xmlns="http://www.w3.org/2000/svg" xmlns:xlink="http://www.w3.org/1999/xlink" 
	 width="800px" height="800px" viewBox="0 0 160 160" enable-background="new 0 0 160 160" xml:space="preserve">
<path id="honey" d="M157.828,22.171l-10-10c-1.561-1.562-4.096-1.562-5.656,0c-1.563,1.563-1.563,4.095,0,5.657L144.344,20
	L140,24.343l-7.172-7.172c-1.561-1.562-4.096-1.562-5.656,0c-1.563,1.563-1.563,4.095,0,5.657L134.344,30L130,34.343l-7.172-7.172
	c-1.561-1.562-4.096-1.562-5.656,0c-1.563,1.563-1.563,4.095,0,5.657L124.344,40L120,44.343l-2.172-2.172
	c-1.561-1.562-4.096-1.562-5.656,0c-1.563,1.563-1.563,4.095,0,5.657L114.344,50l-11,11H55c-2.209,0-4,1.791-4,4v10.705
	c-1.221,1.308-3.286,3.498-5.04,5.252c-3.181,3.18-5.663,6.891-7.377,11.025C36.869,96.115,36,100.494,36,105.001
	c0.001,4.507,0.869,8.886,2.581,13.017c0.806,1.941,1.786,3.784,2.921,5.526l-8.627,8.628c-1.563,1.563-1.563,4.094,0,5.656
	c0.78,0.781,1.805,1.172,2.828,1.172s2.048-0.391,2.828-1.172l8.123-8.122c3.021,2.856,6.488,5.118,10.331,6.712
	C61.118,138.131,65.497,139,70,139h20c4.506,0,8.885-0.868,13.016-2.58c4.139-1.717,7.848-4.199,11.028-7.379
	c3.181-3.182,5.66-6.891,7.373-11.023C123.131,113.887,124,109.506,124,105c0-4.504-0.868-8.883-2.581-13.016
	c-1.716-4.137-4.198-7.846-7.377-11.025c-1.754-1.755-3.819-3.946-5.042-5.254v-9.048l11-11l2.172,2.172
	C122.952,58.609,123.977,59,125,59s2.048-0.391,2.828-1.171c1.563-1.563,1.563-4.095,0-5.657L125.656,50L130,45.657l7.172,7.172
	C137.952,53.609,138.977,54,140,54s2.048-0.391,2.828-1.171c1.563-1.563,1.563-4.095,0-5.657L135.656,40L140,35.657l7.172,7.172
	C147.952,43.609,148.977,44,150,44s2.048-0.391,2.828-1.171c1.563-1.563,1.563-4.095,0-5.657L145.656,30L150,25.657l2.172,2.172
	C152.952,28.609,153.977,29,155,29s2.048-0.391,2.828-1.171C159.391,26.266,159.391,23.734,157.828,22.171z M114.027,114.953
	c-1.311,3.16-3.209,5.996-5.641,8.431c-2.436,2.435-5.273,4.334-8.437,5.646C96.798,130.337,93.449,131,90,131H70
	c-3.446,0-6.795-0.664-9.95-1.973c-3.165-1.313-6.003-3.211-8.437-5.644c-2.432-2.432-4.33-5.27-5.643-8.432
	c-1.307-3.154-1.97-6.503-1.971-9.953c0-2.054,0.24-4.067,0.707-6.028C44.805,98.979,44.899,99,45,99h70
	c0.102,0,0.195-0.021,0.294-0.029C115.76,100.934,116,102.948,116,105C116,108.449,115.337,111.797,114.027,114.953z M111.893,91
	H48.107c1.008-1.572,2.168-3.045,3.51-4.386c2.788-2.79,6.183-6.474,6.326-6.629C58.623,79.247,59,78.279,59,77.276V69h42v8.276
	c0,1.004,0.377,1.971,1.059,2.709c0.143,0.155,3.537,3.839,6.325,6.63C109.725,87.955,110.885,89.43,111.893,91z M105,46
	c2.209,0,4,1.791,4,4s-1.791,4-4,4H55c-2.209,0-4-1.791-4-4s1.791-4,4-4H105z"/>
</svg>