<?xml version="1.0" ?><!-- Uploaded to: SVG Repo, www.svgrepo.com, Generator: SVG Repo Mixer Tools -->
<svg fill="#ffffff" width="800px" height="800px" viewBox="0 0 24 24" data-name="016_FOOD" id="_016_FOOD" xmlns="http://www.w3.org/2000/svg"><defs><style>.cls-1{fill:#333;}</style></defs><path class="cls-1" d="M12,23a1,1,0,0,1-.93-.63l-4-10a1,1,0,1,1,1.86-.74L12,19.31l1.87-4.68a1,1,0,1,1,1.86.74l-2.8,7A1,1,0,0,1,12,23Z"/><path class="cls-1" d="M16,13a1,1,0,0,1,0-2,2,2,0,0,0,0-4,1,1,0,0,1-1-1A3,3,0,0,0,9,6,1,1,0,0,1,8,7a2,2,0,0,0,0,4h3a1,1,0,0,1,0,2H8a4,4,0,0,1-.92-7.89,5,5,0,0,1,9.84,0A4,4,0,0,1,16,13Z"/><path class="cls-1" d="M10.24,8a1,1,0,0,1-.75-.33A2,2,0,0,0,8,7,1,1,0,0,1,8,5a4,4,0,0,1,3,1.33,1,1,0,0,1-.08,1.42A1,1,0,0,1,10.24,8Z"/></svg>