<?xml version="1.0" encoding="utf-8"?>

<!DOCTYPE svg PUBLIC "-//W3C//DTD SVG 1.1//EN" "http://www.w3.org/Graphics/SVG/1.1/DTD/svg11.dtd">
<svg fill="#ffffff" height="800px" width="800px" version="1.1" id="_x32_" xmlns="http://www.w3.org/2000/svg" xmlns:xlink="http://www.w3.org/1999/xlink" 
	 viewBox="0 0 512 512"  xml:space="preserve">
<g>
	<path d="M502.743,172.999c6.547-18.315,20.17-56.424-7.02-93.426c-15.735-21.398-39.013-32.254-69.197-32.254
		c-5.597,0-10.806,0.346-14.988,0.625l-1.824,0.118C377.878,29.266,334.548,18.63,288.938,18.63
		c-62.008,0-121.781,18.838-168.313,53.044C30.439,137.99-5.739,257.512,10.515,335.056c-0.413,1.182-0.866,2.45-1.258,3.548
		c-6.547,18.314-20.174,56.432,7.033,93.442c15.73,21.39,39.004,32.229,69.185,32.229c5.588,0,10.788-0.338,14.965-0.608l1.83-0.118
		c32.156,19.042,75.74,29.822,121.464,29.822c61.244,0,120.374-18.687,166.504-52.606c90.862-66.789,127.476-186.64,111.247-264.209
		C501.898,175.364,502.35,174.097,502.743,172.999z M457.787,179.698c16.41,61.214-15.206,168.908-93.172,226.219
		c-42.286,31.096-93.797,44.2-140.882,44.2c-41.974,0-80.424-10.416-105.683-27.777c-2.564-1.766-6.332-2.273-10.86-2.273
		c-6.209,0-13.846,0.955-21.715,0.955c-12.376,0-25.348-2.365-34.333-14.589c-21.069-28.664,7.13-59.33,3.071-74.52
		c-16.414-61.214,14.074-168.063,92.032-225.391c42.641-31.35,94.988-44.638,142.694-44.638c41.78,0,79.993,10.188,105.016,27.388
		c2.56,1.757,6.319,2.264,10.839,2.264c6.213,0,13.85-0.963,21.732-0.963c12.376,0,25.352,2.382,34.34,14.614
		C481.923,133.842,453.719,164.509,457.787,179.698z"/>
</g>
</svg>