<?xml version="1.0" encoding="iso-8859-1"?>
<!-- Uploaded to: SVG Repo, www.svgrepo.com, Generator: SVG Repo Mixer Tools -->
<svg fill="#FFFFFF" height="800px" width="800px" version="1.1" id="Layer_1" xmlns="http://www.w3.org/2000/svg" xmlns:xlink="http://www.w3.org/1999/xlink" 
	 viewBox="0 0 299.165 299.165" xml:space="preserve">
<g>
	<g>
		<path d="M280.31,88.674c-2.06-1.532-5.1-3.056-9.32-3.483c0.589-23.645-10.099-35.049-25.399-32.281
			c-3.15-17.867-10.863-24.257-17.237-26.368c-4.627-1.532-9.558-1.271-14.74,0.768c-9.032-25.531-27.105-31.21-43.803-15.379
			c-12.103-15.854-28.272-15.961-40.456,0C114.028-2.602,95.359-0.268,85.56,27.314c-13.337-5.251-27.539,0.611-31.976,25.598
			c-4.833-0.873-9.225-0.299-13.125,1.731c-10.132,5.272-12.565,18.225-12.274,30.549c-4.224,0.426-7.269,1.951-9.329,3.484
			c-12.446,9.258-8.105,30.573-2.272,46.823c7.296,20.326,20.839,44.323,38.133,67.57c20.59,27.678,43.787,50.504,63.035,62.194
			c-0.015,0.137-0.025,0.273-0.032,0.413c-0.439,8.812,2.67,17.185,8.751,23.579c6.082,6.392,14.29,9.912,23.112,9.912
			c8.823,0,17.031-3.52,23.113-9.913c6.082-6.392,9.188-14.766,8.75-23.578c-0.007-0.139-0.018-0.275-0.032-0.413
			c19.247-11.689,42.444-34.515,63.035-62.194c17.293-23.248,30.836-47.244,38.133-67.57
			C288.414,119.248,292.755,97.933,280.31,88.674z M164.428,244.703c1.725,16.104,2.278,21.254,2.346,21.893
			c0.182,4.681-1.493,9.122-4.728,12.522c-6.779,7.124-18.127,7.148-24.926,0c-3.236-3.401-4.911-7.841-4.728-12.522
			c0.069-0.639,0.508-4.734,2.346-21.893c0.234-2.191-0.527-4.374-2.075-5.943L87.581,193.04c-1.526-1.549,0.613-3.92,2.312-2.608
			l36.368,28.186c4.197,3.253,10.37,1.108,11.639-4.051c0.193-0.787-0.04,0.996,3.433-31.426c0.234-2.191-0.527-4.374-2.075-5.943
			l-21.231-21.533l13.829,10.717c4.534,3.516,11.198,0.692,11.811-5.026l5.916-55.227l5.916,55.227
			c0.612,5.715,7.273,8.544,11.811,5.026l13.829-10.717l-21.231,21.533c-1.548,1.57-2.309,3.751-2.075,5.943
			c3.472,32.414,3.24,30.639,3.433,31.426c1.267,5.151,7.439,7.308,11.639,4.051l36.367-28.185c1.723-1.334,3.822,1.074,2.314,2.606
			l-45.085,45.722C164.954,240.331,164.193,242.512,164.428,244.703z M232.654,194.294c-17.44,23.444-36.569,43.05-52.997,54.573
			l-0.243-2.266l42.639-43.242c5.974-6.059,6.377-15.942,0.59-22.464c-5.781-6.513-15.667-7.281-22.375-2.082l-25.959,20.118
			l-1.489-13.894l30.79-31.227c4.996-5.066,5.21-13.203,0.487-18.522c-4.721-5.319-12.823-6.075-18.449-1.717l-16.936,13.125
			l-4.953-46.246c-0.777-7.263-6.872-12.74-14.176-12.74c-7.287,0-13.397,5.46-14.176,12.739l-4.954,46.246l-16.936-13.126
			c-5.622-4.358-13.727-3.602-18.448,1.718c-4.724,5.32-4.51,13.456,0.486,18.521l30.791,31.228l-1.489,13.894l-25.959-20.118
			c-6.843-5.306-16.674-4.343-22.374,2.082c-5.728,6.452-5.469,16.32,0.59,22.464l42.638,43.242l-0.243,2.266
			c-16.43-11.524-35.558-31.13-52.997-54.573C29.888,145.064,17.1,99.765,30.509,99.765c3.531,0,6.725,2.204,10.457-1.073
			c1.811-1.591,2.727-3.968,2.452-6.363c-1.815-15.779,0.927-23.139,3.826-24.647c1.829-0.951,5.206-0.342,9.263,1.677
			c4.688,2.328,10.229-0.853,10.604-6.052c1.093-15.148,5.017-21.715,8.323-22.809c2.323-0.774,5.951,0.526,10.205,3.654
			c4.213,3.098,10.254,0.917,11.494-4.186c3.732-15.342,9.007-21.445,12.7-22.04c3.665-0.585,9.137,3.378,14.65,10.614
			c3.265,4.288,9.825,3.695,12.327-0.988c4.29-8.022,9.066-12.812,12.773-12.812s8.482,4.79,12.773,12.812
			c2.515,4.701,9.076,5.255,12.327,0.988c5.513-7.237,10.988-11.196,14.65-10.614c3.693,0.595,8.968,6.698,12.699,22.04
			c1.242,5.103,7.281,7.282,11.494,4.186c4.255-3.127,7.881-4.428,10.205-3.654c3.307,1.095,7.23,7.662,8.323,22.809
			c0.375,5.208,5.924,8.376,10.604,6.052c4.057-2.018,7.432-2.627,9.262-1.677c2.9,1.508,5.642,8.869,3.827,24.647
			c-0.586,5.09,4.102,9.214,9.079,7.972c3.087-0.769,5.533-0.709,6.71,0.167C278.289,105.497,270.687,143.169,232.654,194.294z"/>
	</g>
</g>
</svg>