<?xml version="1.0" encoding="iso-8859-1"?>
<!-- Uploaded to: SVG Repo, www.svgrepo.com, Generator: SVG Repo Mixer Tools -->
<svg fill="#FFFFFF" version="1.1" id="Layer_1" xmlns="http://www.w3.org/2000/svg" xmlns:xlink="http://www.w3.org/1999/xlink" 
	 viewBox="0 0 511.999 511.999" xml:space="preserve">
<g>
	<g>
		<path d="M485.962,2.833L360.878,84.438c-17.132-17.133-38.489-13.417-49.663-2.234l-25.877,25.872
			c-20.459-9.76-42.776-4.663-57.136,9.705L14.752,331.228c-19.659,19.647-19.68,51.486,0,71.155l94.857,94.857
			c19.646,19.668,51.492,19.679,71.155,0.006l35.577-35.577l-83.006-83.007c-6.551-6.545-6.551-17.168,0-23.715l118.583-118.583
			c6.551-6.551,17.164-6.551,23.715,0l83.012,83.006l35.571-35.571c14.435-14.427,19.428-36.762,9.707-57.139l25.887-25.884
			c11.84-11.86,15.011-32.402-2.252-49.664l81.606-125.066C519.059,10.878,501.049-7.03,485.962,2.833z M382.36,200.787
			l-71.151-71.151l23.722-23.718c0,0,71.146,71.14,71.155,71.149L382.36,200.787z"/>
	</g>
</g>
<g>
	<g>
		
			<rect x="184.837" y="304.638" transform="matrix(0.7071 -0.7071 0.7071 0.7071 -177.2006 282.0946)" width="134.162" height="100.62"/>
	</g>
</g>
</svg>