<?xml version="1.0" encoding="iso-8859-1"?>
<!-- Uploaded to: SVG Repo, www.svgrepo.com, Generator: SVG Repo Mixer Tools -->
<!DOCTYPE svg PUBLIC "-//W3C//DTD SVG 1.1//EN" "http://www.w3.org/Graphics/SVG/1.1/DTD/svg11.dtd">
<svg fill="#ffffff" height="800px" width="800px" version="1.1" id="Capa_1" xmlns="http://www.w3.org/2000/svg" xmlns:xlink="http://www.w3.org/1999/xlink" 
	 viewBox="0 0 403.73 403.73" xml:space="preserve">
<g>
	<path d="M201.864,279.033c-34.661,0-63.651-4.525-86.93-13.523C93.651,325.457,86.968,403.73,197.207,403.73
		c107.918,0,102.077-75.012,80.537-134.41C256.539,275.787,231.236,279.033,201.864,279.033z"/>
	<path d="M260.56,13.426c3.107,3.953,5.038,9.141,5.038,15.576c0,33.359-51.731,33.357-51.731,0
		c0-14.877,10.29-23.113,21.691-24.721C224.741,1.488,213.461,0,201.864,0C145.584,0,96.689,34.83,72.657,85.592
		c17.721,1.051,29.661,18.264,29.661,35.221c0,17.494-12.719,35.271-31.378,35.271c-5.193,0-9.924-1.381-14.051-3.744
		c-0.038,1.471-0.061,2.945-0.061,4.426c0,73.834,47.442,109.726,145.037,109.726c97.596,0,145.039-35.892,145.039-109.726
		C346.903,92.895,311.375,37.83,260.56,13.426z M187.279,207.182c-9.753,36.52-77.892,18.273-68.147-18.217
		C128.903,152.453,197.042,170.699,187.279,207.182C191.354,191.957,183.21,222.42,187.279,207.182z M133.924,92.799
		c0-41.371,70.543-41.371,70.543,0C204.467,134.182,133.924,134.182,133.924,92.799z M228.893,212.627
		c-16.844-32.18,38.702-61.242,55.551-29.08l0.011,0.021C301.278,215.748,245.731,244.813,228.893,212.627z M320.041,127.027
		c-3.316,9.154-1.663,4.59-0.006,0.016c-5.432,14.975-20.959,28.023-37.66,23.729c-18.934-4.869-24.297-27.516-18.321-44.014
		c5.428-14.984,20.962-28.045,37.67-23.746c18.928,4.869,24.288,27.506,18.32,44.002
		C321.702,122.441,323.352,117.885,320.041,127.027z"/>
</g>
</svg>