<?xml version="1.0" encoding="utf-8"?>

<!DOCTYPE svg PUBLIC "-//W3C//DTD SVG 1.1//EN" "http://www.w3.org/Graphics/SVG/1.1/DTD/svg11.dtd">
<!-- Uploaded to: SVG Repo, www.svgrepo.com, Generator: SVG Repo Mixer Tools -->
<svg height="800px" width="800px" version="1.1" id="_x32_" xmlns="http://www.w3.org/2000/svg" xmlns:xlink="http://www.w3.org/1999/xlink" 
	 viewBox="0 0 512 512"  xml:space="preserve">
<g>
	<path fill="#FFFFFF" d="M355.256,107.302c-3.288-4.589-8.799-11.583-15.341-19.682c-6.558-8.115-14.187-17.408-21.948-26.948
		c-9.639-11.88-19.419-24.042-27.724-35.032c2.332,7.152,4.811,14.615,7.283,21.957c6.384,19.006,12.597,37.066,15.761,47.743
		c12.086,40.848,19.287,95.817,19.311,156.553c-0.024,60.727-7.225,115.688-19.304,156.536c-4.07,13.734-8.732,25.787-14.005,36.16
		c3.617-1.656,7.209-3.402,10.718-5.47c16.79-9.895,32.188-24.412,45.247-42.652c26.15-36.432,42.784-87.701,42.758-144.573
		C398.04,195.011,381.414,143.75,355.256,107.302z"/>
	<path fill="#FFFFFF" d="M201.982,439.116c3.526,2.076,7.143,3.839,10.784,5.512c-5.297-10.397-9.968-22.426-14.064-36.193
		c-12.086-40.855-19.286-95.816-19.311-156.543c0.024-60.736,7.225-115.705,19.303-156.553c3.171-10.677,9.384-28.736,15.769-47.743
		c2.472-7.342,4.96-14.805,7.283-21.973c-4.952,6.558-10.422,13.528-16.107,20.646c-11.484,14.368-23.727,29.173-33.564,41.35
		c-6.542,8.099-12.053,15.094-15.341,19.682c-26.158,36.448-42.784,87.71-42.758,144.59c-0.025,56.872,16.6,108.141,42.758,144.581
		C169.794,414.705,185.192,429.222,201.982,439.116z"/>
	<path fill="#FFFFFF" d="M88.668,251.892c0.024-62.302,18.034-118.935,47.85-160.59c3.955-5.512,9.598-12.646,16.264-20.902
		c5.734-7.11,12.243-15.044,18.85-23.167l-1.277,1.038c-17.82,14.344-36.852,29.14-52.168,41.334
		c-10.192,8.116-18.792,15.135-23.992,19.806c-41.12,36.975-65.976,87.198-65.992,142.481
		c0.016,55.265,24.872,105.504,65.992,142.464c17.104,15.365,37.049,28.3,59.048,38.211c-5.874-6.27-11.543-12.86-16.726-20.086
		C106.694,370.825,88.692,314.184,88.668,251.892z"/>
	<path fill="#FFFFFF" d="M270.702,442.832c6.386-9.062,12.943-23.712,18.43-42.314c11.064-37.256,18.183-90.19,18.158-148.626
		c0.026-58.446-7.093-111.372-18.166-148.644c-2.81-9.507-9.062-27.764-15.464-46.796c-6.418-19.106-13.001-39.044-16.823-53.289
		c-0.288-1.07-0.56-2.109-0.84-3.164c-0.288,1.054-0.552,2.076-0.841,3.156c-3.822,14.253-10.405,34.19-16.823,53.296
		c-6.402,19.031-12.655,37.288-15.473,46.804c-11.064,37.264-18.183,90.189-18.158,148.635
		c-0.025,58.436,7.093,111.37,18.166,148.626c4.119,13.956,8.807,25.688,13.619,34.504c4.786,8.84,9.787,14.607,13.569,17.153
		c2.554,1.73,4.317,2.175,5.94,2.2c1.622-0.024,3.386-0.469,5.94-2.2C264.448,450.453,267.53,447.372,270.702,442.832z"/>
	<path fill="#FFFFFF" d="M417.796,109.411c-7.588-6.822-22.434-18.645-39.134-31.851c-12.498-9.886-26.092-20.63-38.87-31.011
		c6.813,8.371,13.511,16.544,19.418,23.852c6.666,8.255,12.309,15.39,16.264,20.902c29.815,41.655,47.826,98.288,47.85,160.59
		c-0.024,62.293-18.035,118.934-47.85,160.588c-5.182,7.226-10.851,13.816-16.725,20.086c21.998-9.911,41.944-22.846,59.055-38.211
		c41.12-36.959,65.976-87.198,65.992-142.464C483.78,196.609,458.924,146.386,417.796,109.411z"/>
	<path fill="#FFFFFF" d="M222.596,453.139c-2.62-3.856-7.868-4.853-11.724-2.233l-42.586,28.968c-3.856,2.62-4.852,7.868-2.233,11.724
		c2.62,3.847,7.868,4.853,11.724,2.232l42.586-28.968C224.211,462.242,225.216,456.986,222.596,453.139z"/>
	<path fill="#FFFFFF" d="M243.234,456.664c-4.417-1.482-9.204,0.898-10.686,5.314l-13.059,38.896
		c-1.483,4.416,0.898,9.202,5.314,10.686c4.416,1.482,9.202-0.898,10.686-5.314l13.058-38.896
		C250.031,462.934,247.65,458.148,243.234,456.664z"/>
	<path fill="#FFFFFF" d="M301.119,450.906c-3.855-2.62-9.104-1.623-11.724,2.233c-2.62,3.847-1.622,9.104,2.233,11.723l42.586,28.968
		c3.856,2.62,9.104,1.615,11.724-2.232c2.62-3.856,1.623-9.104-2.233-11.724L301.119,450.906z"/>
	<path fill="#FFFFFF" d="M279.444,461.978c-1.483-4.416-6.27-6.796-10.686-5.314c-4.416,1.483-6.796,6.27-5.314,10.686l13.058,38.896
		c1.483,4.416,6.27,6.796,10.686,5.314c4.417-1.483,6.797-6.27,5.314-10.686L279.444,461.978z"/>
</g>
</svg>