<?xml version="1.0" encoding="iso-8859-1"?>
<!-- Uploaded to: SVG Repo, www.svgrepo.com, Generator: SVG Repo Mixer Tools -->
<svg fill="#ffffff" height="800px" width="800px" version="1.1" id="Layer_1" xmlns="http://www.w3.org/2000/svg" xmlns:xlink="http://www.w3.org/1999/xlink" 
	 viewBox="0 0 513.6 513.6" xml:space="preserve">
<g>
	<g>
		<path d="M256.8,0c-88,0-160,72-160,160v17.6v16v280c0,24,28.8,40,48,40h240c8,0,32-3.2,32-40v-280v-16V160
			C416.8,72,344.8,0,256.8,0z M384.8,473.6c0,3.2,0,6.4,0,8h-240c-6.4,0-14.4-4.8-16-8v-280h256V473.6z M384.8,161.6h-256V160
			c0-70.4,57.6-128,128-128s128,57.6,128,128V161.6z"/>
	</g>
</g>
<g>
	<g>
		<path d="M276,86.4c-6.4-6.4-17.6-6.4-22.4,0c-3.2,3.2-4.8,6.4-4.8,11.2s1.6,9.6,3.2,12.8c3.2,1.6,8,3.2,12.8,3.2s8-1.6,11.2-4.8
			s4.8-6.4,4.8-11.2S279.2,89.6,276,86.4z"/>
	</g>
</g>
<g>
	<g>
		<path d="M244,54.4c-6.4-6.4-17.6-6.4-22.4,0c-3.2,3.2-4.8,6.4-4.8,11.2s1.6,8,4.8,11.2c1.6,3.2,6.4,4.8,11.2,4.8s8-1.6,11.2-4.8
			s4.8-6.4,4.8-11.2S247.2,57.6,244,54.4z"/>
	</g>
</g>
<g>
	<g>
		<path d="M308,54.4c-6.4-6.4-16-6.4-22.4,0c-3.2,3.2-4.8,6.4-4.8,11.2s1.6,8,4.8,11.2c1.6,3.2,6.4,4.8,11.2,4.8s8-1.6,11.2-4.8
			s4.8-6.4,4.8-11.2S311.2,57.6,308,54.4z"/>
	</g>
</g>
<g>
	<g>
		<path d="M212,436.8c-6.4-6.4-16-6.4-22.4,0c-3.2,3.2-4.8,8-4.8,11.2c0,4.8,1.6,8,4.8,11.2c3.2,3.2,6.4,4.8,11.2,4.8
			s8-1.6,11.2-4.8s4.8-6.4,4.8-11.2C216.8,443.2,215.2,440,212,436.8z"/>
	</g>
</g>
<g>
	<g>
		<path d="M340,436.8c-6.4-6.4-16-6.4-22.4,0c-3.2,3.2-4.8,6.4-4.8,11.2s1.6,8,4.8,11.2c3.2,3.2,6.4,4.8,11.2,4.8s8-1.6,11.2-4.8
			s4.8-6.4,4.8-11.2C344.8,443.2,343.2,440,340,436.8z"/>
	</g>
</g>
<g>
	<g>
		<path d="M276,436.8c-6.4-6.4-16-6.4-22.4,0c-3.2,3.2-4.8,6.4-4.8,11.2s1.6,8,4.8,11.2c3.2,3.2,6.4,4.8,11.2,4.8s8-1.6,11.2-4.8
			s4.8-6.4,4.8-11.2C280.8,443.2,279.2,440,276,436.8z"/>
	</g>
</g>
<g>
	<g>
		<path d="M308,390.4c-6.4-6.4-16-6.4-22.4,0c-3.2,3.2-4.8,6.4-4.8,11.2c0,3.2,1.6,8,4.8,11.2c3.2,3.2,6.4,4.8,11.2,4.8
			s8-1.6,11.2-4.8c3.2-3.2,4.8-6.4,4.8-11.2S311.2,393.6,308,390.4z"/>
	</g>
</g>
<g>
	<g>
		<path d="M372,390.4c-6.4-6.4-16-6.4-22.4,0c-3.2,3.2-4.8,6.4-4.8,11.2c0,4.8,1.6,8,4.8,11.2c3.2,3.2,6.4,4.8,11.2,4.8
			s8-1.6,11.2-4.8c3.2-3.2,4.8-6.4,4.8-11.2S375.2,393.6,372,390.4z"/>
	</g>
</g>
<g>
	<g>
		<path d="M180,390.4c-6.4-6.4-17.6-6.4-22.4,0c-3.2,3.2-4.8,6.4-4.8,11.2c0,4.8,1.6,8,4.8,11.2c1.6,3.2,6.4,4.8,11.2,4.8
			s8-1.6,11.2-4.8c3.2-3.2,4.8-6.4,4.8-11.2S183.2,393.6,180,390.4z"/>
	</g>
</g>
<g>
	<g>
		<path d="M244,390.4c-6.4-6.4-16-6.4-22.4,0c-3.2,3.2-4.8,8-4.8,11.2s1.6,8,4.8,11.2c3.2,3.2,6.4,4.8,11.2,4.8s8-1.6,11.2-4.8
			c3.2-3.2,4.8-6.4,4.8-11.2S247.2,393.6,244,390.4z"/>
	</g>
</g>
<g>
	<g>
		<path d="M212,342.4c-6.4-6.4-16-6.4-22.4,0c-3.2,3.2-4.8,6.4-4.8,11.2c0,4.8,1.6,8,4.8,11.2c3.2,3.2,6.4,4.8,11.2,4.8
			s8-1.6,11.2-4.8c3.2-3.2,4.8-6.4,4.8-11.2S215.2,345.6,212,342.4z"/>
	</g>
</g>
<g>
	<g>
		<path d="M340,342.4c-6.4-6.4-16-6.4-22.4,0c-3.2,3.2-4.8,6.4-4.8,11.2c0,4.8,1.6,8,4.8,11.2c3.2,3.2,6.4,4.8,11.2,4.8
			s8-1.6,11.2-4.8c3.2-3.2,4.8-6.4,4.8-11.2S343.2,345.6,340,342.4z"/>
	</g>
</g>
<g>
	<g>
		<path d="M276,342.4c-6.4-6.4-16-6.4-22.4,0c-3.2,3.2-4.8,6.4-4.8,11.2c0,4.8,1.6,8,4.8,11.2c3.2,3.2,6.4,4.8,11.2,4.8
			s8-1.6,11.2-4.8c3.2-3.2,4.8-6.4,4.8-11.2S279.2,345.6,276,342.4z"/>
	</g>
</g>
</svg>