<?xml version="1.0" encoding="utf-8"?>

<!DOCTYPE svg PUBLIC "-//W3C//DTD SVG 1.1//EN" "http://www.w3.org/Graphics/SVG/1.1/DTD/svg11.dtd">
<!-- Uploaded to: SVG Repo, www.svgrepo.com, Generator: SVG Repo Mixer Tools -->
<svg height="800px" width="800px" version="1.1" id="_x32_" xmlns="http://www.w3.org/2000/svg" xmlns:xlink="http://www.w3.org/1999/xlink" 
	 viewBox="0 0 512 512"  xml:space="preserve">
<g>
	<path fill="#FFFFFF" d="M460.293,58.046c-15.34-17.562-34.096-32.113-55.697-42.244C383.012,5.663,358.601-0.016,332.333,0
		c-4.811,0-9.709,0.175-14.672,0.573h0.025c-36.303,2.883-67.907,19.258-94.414,37.657c-25.829,17.984-47.262,38.294-63.024,51.603
		c-39.56,20.994-75.872,44.292-103.915,74.812c-14.202,15.491-26.22,32.878-35.108,52.543c-8.897,19.648-14.623,41.52-16.543,65.7
		c-0.525,6.555-0.788,13.006-0.788,19.355c-0.008,32.966,7.008,62.928,19.449,89.029c18.67,39.202,49.358,69.507,85.661,89.826
		c36.334,20.342,78.34,30.887,120.704,30.902c60.006,0.008,114.484-24.428,153.717-63.821
		c35.411-30.823,65.788-75.991,88.066-122.919c11.206-23.694,20.294-47.827,26.625-70.886c6.332-23.065,9.972-45.008,9.988-64.76
		C508.089,140.234,490.949,93.194,460.293,58.046z M465.065,245.288c-8.61,31.325-23.233,66.083-41.608,97.79
		c-18.326,31.731-40.492,60.452-63.326,79.981l-0.494,0.422l-0.485,0.494c-33.133,33.213-78.81,53.73-129.442,53.738
		c-48.895,0.032-97.305-16.455-132.796-46.442c-17.776-14.981-32.384-33.284-42.611-54.749
		c-10.21-21.464-16.112-46.132-16.12-74.278c0-5.416,0.214-10.96,0.669-16.622c1.649-20.493,6.38-38.294,13.611-54.303
		c10.864-23.998,27.51-44.212,48.951-62.49c21.426-18.24,47.596-34.352,76.588-49.612l1.617-0.86l1.41-1.178
		c17.172-14.456,37.951-34.217,61.822-50.791c23.83-16.614,50.217-29.565,77.497-31.628h0.024c4.046-0.326,8.036-0.478,11.963-0.478
		c21.369,0.016,40.604,4.548,57.704,12.56c25.598,12.011,46.465,31.994,61.057,56.948c14.567,24.929,22.731,54.756,22.723,85.827
		C473.833,205.074,470.807,224.436,465.065,245.288z"/>
	<path fill="#FFFFFF" d="M198.001,387.545c-11.931,0-21.608,9.669-21.608,21.6c0,11.947,9.677,21.616,21.608,21.616
		s21.608-9.67,21.608-21.616C219.609,397.214,209.933,387.545,198.001,387.545z"/>
	<path fill="#FFFFFF" d="M323.715,301.821c-11.931,0-21.608,9.677-21.608,21.608c0,11.947,9.677,21.616,21.608,21.616
		c11.931,0,21.609-9.669,21.609-21.616C345.324,311.498,335.646,301.821,323.715,301.821z"/>
	<path fill="#FFFFFF" d="M262.109,137.35c-11.923,0-21.6,9.677-21.6,21.608c0,11.948,9.677,21.616,21.6,21.616
		c11.94,0,21.616-9.669,21.616-21.616C283.725,147.027,274.048,137.35,262.109,137.35z"/>
	<path fill="#FFFFFF" d="M387.823,160.202c-11.931,0-21.6,9.685-21.6,21.608c0,11.946,9.669,21.616,21.6,21.616
		c11.94,0,21.616-9.67,21.616-21.616C409.439,169.886,399.763,160.202,387.823,160.202z"/>
	<path fill="#FFFFFF" d="M157.995,250.392c-11.931,0-21.608,9.678-21.608,21.609c0,11.938,9.677,21.608,21.608,21.608
		c11.94,0,21.616-9.67,21.616-21.608C179.611,260.07,169.934,250.392,157.995,250.392z"/>
</g>
</svg>