<?xml version="1.0" encoding="utf-8"?>

<!DOCTYPE svg PUBLIC "-//W3C//DTD SVG 1.1//EN" "http://www.w3.org/Graphics/SVG/1.1/DTD/svg11.dtd">
<!-- Uploaded to: SVG Repo, www.svgrepo.com, Generator: SVG Repo Mixer Tools -->
<svg fill="#ffffff" height="800px" width="800px" version="1.1" id="_x32_" xmlns="http://www.w3.org/2000/svg" xmlns:xlink="http://www.w3.org/1999/xlink" 
	 viewBox="0 0 512 512"  xml:space="preserve">

<g>
	<path d="M433.838,416.037l-56.697-280.01c8.639-4.596,14.582-13.576,14.582-24.039V75.96
		c0-41.954-34.007-75.96-75.97-75.96H194.367c-41.944,0-75.95,34.006-75.95,75.96v36.028c0,11.136,6.684,20.687,16.252,24.95
		L78.162,416.037c-1.082,5.279-1.594,10.596-1.594,15.883c0,18.323,6.285,36.266,18.076,50.696
		C109.853,501.215,132.619,512,156.638,512h198.724c24.019,0,46.767-10.785,61.976-29.374c11.791-14.44,18.094-32.383,18.094-50.706
		C435.432,426.632,434.901,421.306,433.838,416.037z M387.242,457.999c-7.842,9.57-19.519,15.114-31.88,15.114H156.638
		c-12.361,0-24.057-5.544-31.88-15.114c-6.076-7.424-9.304-16.652-9.304-26.079c0-2.715,0.266-5.45,0.817-8.164l57.57-284.425h164.3
		l57.59,284.425c0.531,2.706,0.816,5.439,0.816,8.164C396.546,441.347,393.3,450.575,387.242,457.999z"/>
	<path d="M168.885,365.482c-8.773,0-15.893,7.111-15.893,15.902s7.12,15.902,15.893,15.902
		c8.791,0,15.911-7.11,15.911-15.902S177.677,365.482,168.885,365.482z"/>
	<path d="M227.955,365.482c-8.772,0-15.892,7.111-15.892,15.902s7.12,15.902,15.892,15.902
		c8.791,0,15.912-7.11,15.912-15.902S236.746,365.482,227.955,365.482z"/>
	<path d="M287.026,365.482c-8.772,0-15.892,7.111-15.892,15.902s7.12,15.902,15.892,15.902
		c8.791,0,15.911-7.11,15.911-15.902S295.817,365.482,287.026,365.482z"/>
	<path d="M346.096,365.482c-8.791,0-15.893,7.111-15.893,15.902s7.102,15.902,15.893,15.902s15.912-7.11,15.912-15.902
		S354.887,365.482,346.096,365.482z"/>
	<path d="M197.937,351.593c8.791,0,15.911-7.11,15.911-15.902s-7.12-15.903-15.911-15.903
		c-8.773,0-15.893,7.112-15.893,15.903S189.164,351.593,197.937,351.593z"/>
	<path d="M257.006,351.593c8.791,0,15.912-7.11,15.912-15.902s-7.12-15.903-15.912-15.903
		c-8.772,0-15.892,7.112-15.892,15.903S248.234,351.593,257.006,351.593z"/>
	<path d="M316.077,351.593c8.791,0,15.911-7.11,15.911-15.902s-7.12-15.903-15.911-15.903
		c-8.772,0-15.893,7.112-15.893,15.903S307.305,351.593,316.077,351.593z"/>
	<path d="M197.937,409.23c-8.773,0-15.893,7.111-15.893,15.903c0,8.791,7.12,15.902,15.893,15.902
		c8.791,0,15.911-7.11,15.911-15.902C213.848,416.341,206.728,409.23,197.937,409.23z"/>
	<path d="M257.006,409.23c-8.772,0-15.892,7.111-15.892,15.903c0,8.791,7.12,15.902,15.892,15.902
		c8.791,0,15.912-7.11,15.912-15.902C272.918,416.341,265.797,409.23,257.006,409.23z"/>
	<path d="M316.077,409.23c-8.772,0-15.893,7.111-15.893,15.903c0,8.791,7.121,15.902,15.893,15.902
		c8.791,0,15.911-7.11,15.911-15.902C331.988,416.341,324.868,409.23,316.077,409.23z"/>
</g>
</svg>