<?xml version="1.0" encoding="iso-8859-1"?>
<!-- Uploaded to: SVG Repo, www.svgrepo.com, Generator: SVG Repo Mixer Tools -->
<!DOCTYPE svg PUBLIC "-//W3C//DTD SVG 1.1//EN" "http://www.w3.org/Graphics/SVG/1.1/DTD/svg11.dtd">
<svg fill="#ffffff" height="800px" width="800px" version="1.1" id="Capa_1" xmlns="http://www.w3.org/2000/svg" xmlns:xlink="http://www.w3.org/1999/xlink" 
	 viewBox="0 0 297 297" xml:space="preserve">
<path d="M238.732,97.996c0-10.488,8.533-19.736,19.021-19.736c10.488,0,19.021,8.533,19.021,19.021
	c0,10.488-8.533,19.021-19.021,19.021c-5.585,0-10.113,4.527-10.113,10.113c0,5.584,4.528,10.113,10.113,10.113
	c21.641,0,39.247-17.605,39.247-39.248c0-21.641-17.606-39.246-39.247-39.246c-19.698,0-36.049,14.588-38.826,33.527
	c-12.928,4.592-24.782,6.838-36.075,6.838c-0.002,0-0.005,0-0.008,0c-23.946-0.004-41.795-10.188-60.69-20.967
	c-11.288-6.441-22.959-13.1-36.007-17.449c-9.152-3.051-18.423-4.598-27.555-4.598c-33.634,0-54.747,20.727-55.63,21.607
	c-2.404,2.404-3.438,5.855-2.756,9.186c0.683,3.33,2.995,6.094,6.151,7.355c30.396,12.158,47.146,32.59,63.343,52.348
	c16.092,19.627,32.63,39.771,61.127,47.275c-9.518,8.682-18.734,21.445-18.734,38.344c0,5.584,4.528,10.111,10.113,10.111h66.746
	c0.008,0,0.015,0,0.02,0c5.586,0,10.113-4.527,10.113-10.111c0-0.246-0.008-0.49-0.026-0.732
	c-0.274-17.393-10.315-30.34-20.19-38.908C213.911,178.377,238.732,135.32,238.732,97.996z M134.464,221.389
	c4.538-10.543,15.185-17.949,21.102-21.416c5.9,3.479,16.551,10.912,21.108,21.416H134.464z M199.326,151.262
	c-12.5,15.953-27.963,24.74-43.542,24.74c-35.237,0-50.772-18.951-70.441-42.943c-14.166-17.279-29.908-36.48-55.17-50.555
	c7.038-3.58,16.713-6.891,28.42-6.891c6.953,0,14.071,1.197,21.158,3.561c11.155,3.717,21.465,9.6,32.38,15.826
	c20.354,11.613,41.402,23.623,70.712,23.625c0.004,0,0.007,0,0.011,0c10.972,0,22.229-1.697,34.093-5.164
	C214.223,126.707,208.052,140.123,199.326,151.262z"/>
</svg>