<?xml version="1.0" encoding="iso-8859-1"?>
<!-- Uploaded to: SVG Repo, www.svgrepo.com, Generator: SVG Repo Mixer Tools -->
<!DOCTYPE svg PUBLIC "-//W3C//DTD SVG 1.1//EN" "http://www.w3.org/Graphics/SVG/1.1/DTD/svg11.dtd">
<svg fill="#ffffff" height="800px" width="800px" version="1.1" id="Capa_1" xmlns="http://www.w3.org/2000/svg" xmlns:xlink="http://www.w3.org/1999/xlink" 
	 viewBox="0 0 50.035 50.035" xml:space="preserve">
<path d="M47.516,7.273c-0.162-0.21-0.707-0.776-0.746-0.814c-0.358-0.331-0.752-0.612-1.167-0.852l1.118-2.981
	c0.21-0.56,0.136-1.16-0.202-1.647c-0.5-0.721-1.492-0.981-2.28-0.587l-1.843,0.922l-4.357-1.245
	c-0.833-0.235-1.717,0.159-2.101,0.928c-0.304,0.609-0.238,1.328,0.173,1.874l2.368,3.158c-0.247,0.185-0.487,0.383-0.71,0.605
	c-1.362,1.362-2.046,3.246-1.881,5.076c-0.027,4.979-0.932,10.464-7.312,16.845c-6.352,6.351-11.96,7.278-16.614,7.332
	c-0.529-0.046-1.513,0.016-1.602,0.024c-1.417,0.194-2.698,0.829-3.705,1.836c-0.229,0.229-0.43,0.474-0.618,0.725l-3.161-2.37
	c-0.775-0.583-1.939-0.403-2.514,0.36c-0.339,0.449-0.443,1.021-0.287,1.567l1.245,4.356L0.399,44.23
	c-0.28,0.56-0.252,1.211,0.075,1.741c0.327,0.529,0.91,0.857,1.523,0.857c0.217,0,0.431-0.039,0.637-0.116l3.004-1.127
	c0.244,0.421,0.533,0.826,0.88,1.2c0,0,0.566,0.545,0.755,0.69c2.056,1.675,4.823,2.56,8.004,2.56
	c7.164,0,16.054-4.438,23.198-11.582C49.118,27.81,53.082,14.104,47.516,7.273z M4.912,43.721l-2.489,0.935l0.723-1.446
	c0.202-0.403,0.244-0.864,0.121-1.295L2.168,38.07l2.927,2.195c-0.374,1.111-0.436,2.301-0.184,3.448
	C4.911,43.713,4.912,43.718,4.912,43.721z M38.077,2.16l3.844,1.098c0.427,0.124,0.897,0.08,1.297-0.119l1.455-0.749l-0.937,2.496
	c-0.45-0.097-0.911-0.153-1.379-0.153c-0.722,0-1.424,0.124-2.088,0.349L38.077,2.16z M20.358,40.973
	c-1.467,0.392-2.94,0.61-4.382,0.652c-0.01,0-0.02,0-0.029,0c-0.539,0-0.983-0.429-0.999-0.972
	c-0.016-0.552,0.419-1.012,0.972-1.028c1.286-0.036,2.606-0.233,3.923-0.584c0.529-0.143,1.081,0.174,1.224,0.708
	C21.209,40.283,20.892,40.831,20.358,40.973z M23.94,39.7c-0.132,0.059-0.27,0.086-0.404,0.086c-0.384,0-0.75-0.222-0.915-0.595
	c-0.224-0.505,0.004-1.096,0.509-1.319c8.983-3.98,15.645-12.437,16.577-21.043c0.06-0.55,0.556-0.947,1.102-0.887
	c0.55,0.06,0.946,0.553,0.887,1.102C40.672,26.481,33.703,35.373,23.94,39.7z"/>
</svg>