<?xml version="1.0" encoding="utf-8"?>

<!-- Uploaded to: SVG Repo, www.svgrepo.com, Generator: SVG Repo Mixer Tools -->
<svg fill="#ffffff" height="800px" width="800px" version="1.1" id="Icons" xmlns="http://www.w3.org/2000/svg" xmlns:xlink="http://www.w3.org/1999/xlink" 
	 viewBox="0 0 32 32" xml:space="preserve">
<path d="M24,4h-7.2c-1.6,0-3-0.6-4.1-1.7c-0.4-0.4-1-0.4-1.4,0c-0.4,0.4-0.4,1,0,1.4C12.8,5.2,14.7,6,16.8,6H24c1.3,0,2.4,0.8,2.8,2
	H13.9c-2.4,0-4.7,0.7-6.5,1.9c-0.1,1,0,2.1,0.3,3.3c0.7,2.5,2.4,4.6,4.7,5.8c0,0,0.1,0,0.1,0H19c5.5,0,10-4.5,10-10
	C29,6.2,26.8,4,24,4z M23,13c0,0.6-0.4,1-1,1s-1-0.4-1-1v-2c0-0.6,0.4-1,1-1s1,0.4,1,1V13z"/>
<g>
	<path d="M12,21.8c-0.2-0.1-0.4-0.2-0.5-0.4c-0.3-0.3-0.4-0.6-0.4-1c-2.5-1.5-4.4-3.8-5.1-6.7c-0.2-0.7-0.3-1.5-0.4-2.1
		c-1,1.1-1.7,2.4-2,3.9c-0.8,3.3-0.1,6.4,1.8,8.9c1.6,2.1,4,3.3,6.7,3.6V21.8z"/>
	<path d="M21.6,22c-2.2-1.3-4.9-1.5-7.2-0.6L14,21.5v6.2l0.1,0c1.1-0.4,2.2-0.1,3.1,0.6c0.7,0.5,1.5,0.8,2.4,0.8
		c0.4,0,0.7-0.1,1.1-0.2c1.2-0.4,2.2-1.3,2.5-2.5C23.8,24.8,23.1,22.9,21.6,22z"/>
</g>
</svg>