<?xml version="1.0" encoding="iso-8859-1"?>
<!-- Uploaded to: SVG Repo, www.svgrepo.com, Generator: SVG Repo Mixer Tools -->
<svg height="800px" width="800px" version="1.1" id="Capa_1" xmlns="http://www.w3.org/2000/svg" xmlns:xlink="http://www.w3.org/1999/xlink" 
	 viewBox="0 0 15.834 15.834" xml:space="preserve">
<g>
	<g>
		<path style="fill:#ffffff;" d="M12.22,13.067c-0.014-0.009-1.419-0.848-1.419-3.221c0-2.396,1.425-3.571,1.482-3.618
			c0.128-0.101,0.203-0.255,0.203-0.418c0-1.272-1.035-2.306-2.307-2.306H5.655c-1.272,0-2.307,1.034-2.307,2.306
			c0,0.204,0.116,0.389,0.298,0.478c0.018,0.009,1.792,0.907,1.268,3.266c-0.576,2.59-1.428,3.616-1.434,3.623
			c-0.084,0.097-0.132,0.222-0.132,0.351c0,1.272,1.035,2.306,2.307,2.306h4.523c1.271,0,2.307-1.033,2.307-2.306
			C12.486,13.337,12.384,13.163,12.22,13.067z M10.18,14.769H5.657c-0.63,0-1.151-0.47-1.231-1.077
			c0.303-0.431,1.022-1.63,1.529-3.907c0.497-2.238-0.629-3.659-1.507-4.258c0.129-0.549,0.622-0.959,1.21-0.959h1.497v5.767h1.529
			V4.568h1.497c0.61,0,1.12,0.443,1.223,1.025c-0.5,0.495-1.667,1.901-1.667,4.253c0,2.299,1.115,3.489,1.661,3.933
			C11.279,14.344,10.778,14.769,10.18,14.769z"/>
		<path style="fill:#ffffff;" d="M5.522,3.237h4.791c0.366,0,0.665-0.297,0.665-0.666c0-0.367-0.299-0.665-0.665-0.665H8.725V0.532
			L7.11,0v1.907H5.522c-0.367,0-0.665,0.298-0.665,0.665C4.857,2.94,5.155,3.237,5.522,3.237z"/>
	</g>
</g>
</svg>