<?xml version="1.0" encoding="utf-8"?>

<!DOCTYPE svg PUBLIC "-//W3C//DTD SVG 1.1//EN" "http://www.w3.org/Graphics/SVG/1.1/DTD/svg11.dtd">
<!-- Uploaded to: SVG Repo, www.svgrepo.com, Generator: SVG Repo Mixer Tools -->
<svg height="800px" width="800px" version="1.1" id="_x32_" xmlns="http://www.w3.org/2000/svg" xmlns:xlink="http://www.w3.org/1999/xlink" 
	 viewBox="0 0 512 512"  xml:space="preserve">
<g>
	<path fill="#FFFFFF" d="M115.343,123.839c0.814,1.256,3.343,2.605,7.23,4.014c7.586-1.069,14.943-1.586,21.885-1.586
		c15.579,0,30.166,2.469,42.438,7.145c17.87-5.567,43.412-11.694,69.108-11.694c25.694,0,51.228,6.126,69.108,11.694
		c12.262-4.676,26.848-7.145,42.42-7.145c7.001,0,14.418,0.518,22.063,1.604c3.471-1.341,6.296-2.699,8.325-4.031
		c42.2-28.139,53.036-81.183,47.41-69.931c-4.218,8.418-60.309,35.581-100.004,52.222c14.68-17.769,31.677-44.134,43.438-80.309
		c0,0-60.978,52.382-98.867,74.887c-11.974-20.816-33.892-86.589-33.892-86.589s-18.567,49.515-20.358,81.412
		c-30.21-16.929-63.354-51.474-72.485-74.538c-10.752-27.189-13.78,53.545,15.436,89.396c-1.095,0.162-2.206,0.315-3.344,0.476
		c-39.111-16.072-100.454-47.91-104.926-54.86C64.708,47.255,73.143,101.954,115.343,123.839z M290.531,107.181l0.747,0.857
		l-3.098-0.746L290.531,107.181z"/>
	<path fill="#FFFFFF" d="M485.83,198.564c-38.169-57.253-117.544-70.584-160.338-52.195c-18.27-5.906-43.872-12.27-69.49-12.27
		c-25.619,0-51.228,6.364-69.499,12.27c-42.794-18.388-122.168-5.058-160.338,52.195c-64.136,96.203-18.711,299.318,229.836,299.318
		C504.541,497.882,549.974,294.767,485.83,198.564z M101.172,262.929c-17.099,0-30.947-13.857-30.947-30.948
		c0-17.09,13.848-30.947,30.947-30.947c17.082,0,30.947,13.857,30.947,30.947C132.119,249.071,118.253,262.929,101.172,262.929z"/>
</g>
</svg>