<?xml version="1.0" encoding="iso-8859-1"?>
<!-- Uploaded to: SVG Repo, www.svgrepo.com, Generator: SVG Repo Mixer Tools -->
<svg fill="#FFFFFF" height="800px" width="800px" version="1.1" id="Layer_1" xmlns="http://www.w3.org/2000/svg" xmlns:xlink="http://www.w3.org/1999/xlink" 
	 viewBox="0 0 512 512" xml:space="preserve">
<g>
	<g>
		<g>
			<path d="M416.298,92.159C354.091,77.869,283.473,76.325,256,76.325s-98.091,1.544-160.298,15.833
				C32.199,106.748,0,129.917,0,161.024v189.952c0,24.088,19.323,43.412,57.522,57.681c0,0,0.001,0,0.001,0.001
				c0.002,0.001,0.004,0.001,0.006,0.002c11.129,4.157,23.846,7.889,38.173,11.18c51.225,11.767,108.147,14.891,141.991,15.627
				c0.428,0.01,0.855,0.018,1.282,0.027c1.627,0.033,3.202,0.061,4.714,0.084c0.438,0.007,0.873,0.013,1.309,0.018
				c1.699,0.023,3.317,0.04,4.851,0.052c0.207,0.001,0.414,0.003,0.62,0.005c1.997,0.014,3.847,0.021,5.532,0.021
				c18.138,0,55.078-0.674,95.989-5.243c28.684-3.179,59.301-8.257,86.251-16.345c0.466-0.139,0.922-0.281,1.384-0.421
				c0.902-0.275,1.799-0.554,2.691-0.836c1.655-0.522,3.279-1.051,4.875-1.589c0.14-0.047,0.282-0.093,0.422-0.14
				c0.921-0.312,1.825-0.627,2.726-0.944c0.144-0.051,0.291-0.099,0.434-0.151c0.016-0.005,0.03-0.015,0.046-0.021
				c40.62-14.39,61.181-34.165,61.181-59.008V161.024C512,129.917,479.801,106.748,416.298,92.159z M52.267,389.097
				c-20.53-9.211-36.099-21.631-36.099-38.121V195.232c0.653,0.609,1.333,1.212,2.026,1.812c0.152,0.131,0.304,0.262,0.458,0.392
				c0.768,0.653,1.555,1.302,2.37,1.943c0.12,0.094,0.244,0.187,0.363,0.28c0.795,0.62,1.612,1.234,2.452,1.842
				c0.094,0.068,0.184,0.136,0.278,0.204c0.877,0.631,1.785,1.253,2.711,1.87c0.188,0.125,0.375,0.25,0.564,0.375
				c0.918,0.604,1.857,1.203,2.822,1.795c0.178,0.109,0.36,0.218,0.54,0.327c0.979,0.594,1.975,1.182,3.001,1.765
				c0.05,0.028,0.098,0.057,0.149,0.086c1.054,0.596,2.14,1.184,3.242,1.766c0.211,0.112,0.421,0.224,0.635,0.335
				c1.076,0.562,2.174,1.117,3.294,1.665c0.224,0.11,0.453,0.22,0.679,0.329c1.165,0.564,2.348,1.123,3.56,1.674
				c0.076,0.034,0.156,0.069,0.234,0.105c1.182,0.535,2.392,1.062,3.62,1.585c0.211,0.089,0.419,0.18,0.633,0.271
				c0.812,0.342,1.635,0.681,2.467,1.018V389.097z M456.161,390.648V283.229c0-4.466-3.618-8.084-8.084-8.084
				c-4.466,0-8.084,3.618-8.084,8.084v113.363c-22.502,7.345-49.749,12.638-77.946,16.275c-0.21,0.027-0.419,0.054-0.63,0.081
				c-1.919,0.246-3.841,0.485-5.767,0.716c-34.517,4.13-70.022,5.841-99.65,5.841c-19.761,0-41.984-0.751-64.735-2.457
				c-0.105-0.008-0.208-0.016-0.313-0.024c-1.677-0.126-3.358-0.26-5.039-0.397c-0.683-0.056-1.367-0.112-2.048-0.169
				c-0.999-0.084-2-0.171-3.001-0.259c-1.107-0.097-2.216-0.194-3.318-0.295c-0.137-0.013-0.274-0.026-0.412-0.039
				c-13.323-1.232-26.254-2.759-38.515-4.554c-0.251-0.037-0.501-0.073-0.751-0.111c-1.285-0.19-2.563-0.383-3.833-0.578
				c-1.361-0.21-2.721-0.424-4.073-0.642c-0.276-0.044-0.556-0.087-0.831-0.133c-22.116-3.613-42.994-8.363-60.696-14.455V222.488
				c0.072,0.023,0.148,0.045,0.22,0.068c1.471,0.47,2.962,0.935,4.481,1.392c0.224,0.068,0.454,0.134,0.679,0.202
				c1.511,0.452,3.042,0.897,4.598,1.337c0.116,0.032,0.23,0.066,0.346,0.099c1.605,0.451,3.241,0.892,4.895,1.33
				c0.305,0.081,0.608,0.162,0.914,0.241c1.623,0.425,3.269,0.843,4.939,1.255c0.294,0.072,0.592,0.144,0.887,0.217
				c1.747,0.427,3.511,0.848,5.309,1.261c49.207,11.304,103.671,14.631,137.886,15.528c0.125,0.003,0.25,0.006,0.374,0.01
				c1.656,0.043,3.262,0.08,4.818,0.112c0.446,0.01,0.891,0.018,1.337,0.027c1.454,0.028,2.856,0.051,4.215,0.07
				c0.468,0.006,0.935,0.013,1.4,0.019c1.614,0.021,3.155,0.036,4.615,0.046c0.193,0.001,0.386,0.002,0.579,0.003
				c1.821,0.012,3.52,0.017,5.075,0.017c18.133,0,55.065-0.674,95.966-5.24c27.785-3.078,57.385-7.941,83.709-15.593
				c0.266-0.078,0.534-0.154,0.799-0.231c0.396-0.116,0.789-0.234,1.182-0.351c0.177-0.053,0.354-0.105,0.529-0.157
				c0.225-0.068,0.455-0.135,0.679-0.202c0.377-0.114,0.752-0.229,1.127-0.343v32.681c0,4.466,3.619,8.084,8.084,8.084
				s8.084-3.618,8.084-8.084v-38.208c0.488-0.188,0.97-0.376,1.452-0.565c0.264-0.103,0.528-0.207,0.79-0.31
				c1.288-0.511,2.556-1.027,3.797-1.55c0.212-0.089,0.421-0.18,0.633-0.271c1.226-0.522,2.433-1.048,3.612-1.581
				c0.081-0.037,0.164-0.072,0.244-0.109c1.213-0.551,2.393-1.109,3.557-1.672c0.227-0.11,0.456-0.22,0.681-0.33
				c1.121-0.549,2.218-1.104,3.293-1.665c0.213-0.112,0.424-0.224,0.636-0.336c1.103-0.583,2.188-1.17,3.241-1.766
				c0.051-0.028,0.099-0.057,0.149-0.086c1.024-0.581,2.02-1.17,2.998-1.762c0.181-0.11,0.364-0.219,0.543-0.329
				c0.963-0.592,1.901-1.19,2.818-1.793c0.191-0.126,0.38-0.252,0.569-0.378c0.924-0.617,1.83-1.238,2.707-1.868
				c0.096-0.069,0.188-0.138,0.282-0.207c0.839-0.607,1.652-1.219,2.447-1.837c0.122-0.095,0.247-0.189,0.368-0.283
				c0.814-0.64,1.601-1.289,2.368-1.942c0.154-0.13,0.307-0.262,0.459-0.393c0.693-0.599,1.373-1.202,2.026-1.811v155.743h0.001
				C495.832,368.411,478.429,381.296,456.161,390.648z M445.79,204.694c-0.137,0.04-0.275,0.07-0.411,0.117
				c-51.563,18.243-131.637,24.743-189.38,24.743c-1.844,0-3.71-0.006-5.596-0.02c-0.112-0.001-0.224-0.002-0.335-0.003
				c-18.903-0.141-39.788-0.955-61.081-2.607c-0.092-0.008-0.182-0.014-0.274-0.02c-2.049-0.16-4.101-0.328-6.157-0.503
				c-0.839-0.072-1.672-0.149-2.508-0.223c-0.958-0.085-1.917-0.169-2.875-0.258c-1.415-0.13-2.825-0.265-4.232-0.403
				c-0.294-0.029-0.589-0.057-0.882-0.086c-12.801-1.266-25.196-2.807-36.941-4.593c-0.918-0.14-1.836-0.28-2.751-0.425
				c-0.709-0.111-1.415-0.223-2.119-0.336c-24.765-3.996-48.026-9.405-67.073-16.516c-0.166-0.061-0.336-0.103-0.504-0.154
				c-25.436-9.522-46.504-23.198-46.504-42.382c0-28.105,45.219-44.392,83.154-53.107C141.36,98.259,199.932,92.494,256,92.494
				s114.638,5.766,156.677,15.424c37.934,8.715,83.154,25.002,83.154,53.108C495.832,181.09,472.782,195.131,445.79,204.694z"/>
			<path d="M409.92,122.33c-33.433-8.438-74.947-13.85-119.437-15.701c-0.556-0.138-1.126-0.24-1.717-0.257
				c-6.973-0.196-14.015-0.306-21.072-0.375c-3.885-0.054-7.782-0.084-11.694-0.084c-3.912,0-7.81,0.03-11.695,0.084
				c-7.057,0.07-14.099,0.179-21.072,0.375c-0.591,0.016-1.16,0.119-1.717,0.257c-44.49,1.851-86.004,7.264-119.437,15.701
				c-41.723,10.529-61.296,23.51-65.701,32.148c-1.176,2.307-1.176,5.037-0.001,7.344c4.403,8.639,23.976,21.621,65.704,32.151
				c41.946,10.586,96.61,16.415,153.919,16.415s111.973-5.829,153.919-16.415c41.729-10.53,61.301-23.512,65.703-32.151
				c1.175-2.307,1.175-5.037-0.001-7.344C471.216,145.84,451.643,132.859,409.92,122.33z M229.65,122.504
				c5.707-0.183,11.462-0.305,17.252-0.369c6.065-0.047,12.134-0.047,18.199,0c5.789,0.064,11.544,0.185,17.252,0.369l4.24,15.586
				c-0.731,0.529-2.271,1.237-4.521,1.237h-52.143c-2.251,0-3.791-0.708-4.521-1.237L229.65,122.504z M405.962,178.297
				c-40.691,10.269-93.948,15.924-149.963,15.924s-109.273-5.655-149.963-15.924c-28.836-7.276-44.248-15.248-51.098-20.144
				c6.852-4.896,22.265-12.869,51.098-20.145c30.024-7.578,66.893-12.639,106.658-14.775l-3.501,12.867
				c-0.188,0.692-0.284,1.406-0.284,2.122c0,9.686,9.233,17.274,21.019,17.274h52.143c11.787,0,21.019-7.588,21.019-17.274
				c0-0.717-0.096-1.43-0.284-2.122l-3.501-12.867c39.766,2.135,76.634,7.197,106.658,14.775
				c28.833,7.276,44.245,15.25,51.097,20.145C450.21,163.048,434.798,171.021,405.962,178.297z"/>
			<path d="M322.729,358.118c-22.061,1.695-45.136,2.592-66.729,2.592c-23.219,0-47.936-1.027-71.476-2.972
				c-4.432-0.372-8.355,2.942-8.722,7.391c-0.368,4.45,2.943,8.355,7.391,8.722c23.976,1.98,49.153,3.027,72.808,3.027
				c22,0,45.503-0.913,67.97-2.641c4.452-0.342,7.784-4.229,7.44-8.68C331.069,361.107,327.195,357.768,322.729,358.118z"/>
			<path d="M322.729,385.726c-22.061,1.696-45.136,2.592-66.729,2.592c-23.219,0-47.936-1.027-71.476-2.972
				c-4.432-0.378-8.355,2.942-8.722,7.391c-0.368,4.45,2.943,8.355,7.391,8.722c23.976,1.98,49.153,3.027,72.808,3.027
				c22,0,45.503-0.913,67.97-2.641c4.452-0.342,7.784-4.229,7.44-8.68C331.069,388.715,327.195,385.365,322.729,385.726z"/>
			<path d="M354.888,296.691c-0.18-0.159-0.363-0.315-0.544-0.473c-0.712-0.623-1.43-1.237-2.155-1.842
				c-0.129-0.108-0.259-0.214-0.388-0.321c-12.883-10.68-27.61-18.593-43.365-23.415c-0.08-0.025-0.158-0.052-0.237-0.077
				c-0.016-0.005-0.033-0.006-0.051-0.011c-11.74-3.562-24.044-5.419-36.577-5.419c-29.366,0-57.481,10.153-79.996,28.727
				c-9.71-8.006-20.497-14.502-32.191-19.311c-2.494-1.027-5.336-0.738-7.573,0.761c-2.24,1.502-3.584,4.019-3.584,6.715v45.7
				c0,2.697,1.344,5.215,3.584,6.715c1.352,0.905,2.92,1.369,4.501,1.369c1.039,0,2.085-0.201,3.074-0.608
				c11.694-4.808,22.481-11.306,32.19-19.313c22.514,18.575,50.628,28.728,79.996,28.728c12.069,0,23.926-1.716,35.271-5.024
				c0.003-0.001,0.008-0.001,0.011-0.002c0.053-0.015,0.104-0.033,0.157-0.049c1.048-0.307,2.09-0.63,3.128-0.964
				c0.177-0.057,0.352-0.115,0.528-0.174c1.019-0.333,2.033-0.679,3.042-1.037c0.056-0.021,0.113-0.04,0.17-0.06
				c13.65-4.873,26.43-12.111,37.782-21.496c0.142-0.116,0.282-0.234,0.424-0.351c0.733-0.611,1.458-1.231,2.178-1.859
				c0.193-0.168,0.388-0.335,0.58-0.504c0.859-0.759,1.711-1.526,2.551-2.31c1.639-1.53,2.57-3.67,2.57-5.911
				c0-2.242-0.93-4.382-2.57-5.911C356.57,298.193,355.732,297.437,354.888,296.691z M164.395,314.913V294.84
				c5.314,2.919,10.367,6.27,15.134,10.036C174.762,308.641,169.708,311.993,164.395,314.913z M292.937,326.341
				c-6.979,1.381-14.126,2.109-21.366,2.109c-24.813,0-48.604-8.313-67.915-23.575c19.309-15.261,43.101-23.574,67.915-23.574
				c7.536,0,14.973,0.778,22.224,2.272c-3.005,7.055-4.571,14.664-4.571,22.462C289.224,313.015,290.497,319.886,292.937,326.341z
				 M316.897,318.647c-0.039,0.018-0.076,0.037-0.114,0.054c-1.086,0.494-2.186,0.957-3.286,1.415
				c-0.33,0.136-0.655,0.28-0.985,0.414c-0.862,0.348-1.734,0.673-2.605,0.998c-0.432,0.162-0.864,0.327-1.299,0.482
				c-2.113-5.031-3.213-10.457-3.213-15.973c0-6.283,1.409-12.396,4.108-17.963c0.3,0.11,0.598,0.22,0.897,0.333
				c0.882,0.335,1.762,0.677,2.635,1.036c0.38,0.155,0.758,0.317,1.136,0.476c1.037,0.439,2.07,0.887,3.094,1.358
				c0.18,0.082,0.358,0.168,0.537,0.252c7.693,3.593,14.992,8.079,21.676,13.348C332.527,310.355,324.924,314.987,316.897,318.647z"
				/>
		</g>
	</g>
</g>
</svg>