<?xml version="1.0" encoding="iso-8859-1"?>
<!-- Uploaded to: SVG Repo, www.svgrepo.com, Generator: SVG Repo Mixer Tools -->
<!DOCTYPE svg PUBLIC "-//W3C//DTD SVG 1.1//EN" "http://www.w3.org/Graphics/SVG/1.1/DTD/svg11.dtd">
<svg fill="#FFFFFF" height="800px" width="800px" version="1.1" id="Capa_1" xmlns="http://www.w3.org/2000/svg" xmlns:xlink="http://www.w3.org/1999/xlink" 
	 viewBox="0 0 338.377 338.377" xml:space="preserve">
<g>
	<g>
		<g>
			<g>
				<path d="M120.463,287.736c-1.048,0-2.113-0.221-3.128-0.688c-3.764-1.73-5.412-6.184-3.682-9.947l37.057-80.602
					c1.73-3.762,6.184-5.41,9.947-3.682c3.764,1.73,5.412,6.184,3.682,9.947l-37.057,80.602
					C126.019,286.115,123.302,287.736,120.463,287.736z"/>
			</g>
		</g>
		<path d="M252.57,237.988c-11.143-19.06-37.095-67.852-37.412-109.181c-0.014-1.707-0.017-15.238-0.012-38.148l12.093-28.568
			c0.98-2.316,0.734-4.97-0.655-7.066c-1.389-2.097-3.736-3.357-6.252-3.357h-13.754l5.959-43.141
			c0.297-2.147-0.351-4.319-1.775-5.953C209.337,0.938,207.275,0,205.107,0h-56.439c-2.168,0-4.23,0.938-5.654,2.573
			c-1.424,1.634-2.071,3.805-1.775,5.953l5.959,43.141c0,0-4.365,0.027-6.383,2.198c-1.355,1.457-2.197,3.315-2.195,5.306
			c0,0.254,0.004,10.178,0.008,22.466H98.764c-11.64,0-20.043,3.451-24.976,10.257c-5.725,7.896-6.104,19.079-1.154,34.205
			l33.862,102.506c-1.969,3.613-3.771,6.783-5.291,9.384c-15.149,25.911-19.875,45.457-14.45,59.757
			c4.311,11.36,14.108,17.104,22.599,20.436c2.522,11.534,12.818,20.196,25.097,20.196h84.879c12.281,0,22.577-8.663,25.099-20.199
			c8.489-3.332,18.282-9.076,22.592-20.433C272.446,283.445,267.719,263.898,252.57,237.988z M196.501,15l-5.065,36.667h-29.096
			L157.275,15H196.501z M153.618,128.925c0.026-3.284,0.011-44.849,0.004-62.258h55.392c0,0-8.868,22.237-8.867,22.504
			c-0.004,16.883-0.006,37.467,0.012,39.752c0.076,9.98,1.49,20.288,3.766,30.507h-54.07
			C152.127,149.212,153.541,138.904,153.618,128.925z M86.884,121.413c-3.203-9.787-3.541-17.144-0.951-20.716
			c1.953-2.694,6.27-4.061,12.831-4.061h39.866c0.004,15.497,0.002,30.319-0.012,32.171c-0.211,27.313-11.615,57.879-22.543,80.974
			L86.884,121.413z M219.33,323.377h-84.879c-2.973,0-5.664-1.223-7.604-3.19H226.93
			C224.992,322.153,222.302,323.377,219.33,323.377z M252.996,292.424c-2.137,5.631-7.176,9.481-16.727,12.764H117.506
			c-9.552-3.282-14.59-7.133-16.727-12.764c-3.611-9.518,1.014-25.723,13.374-46.865c7.854-13.433,22.678-40.943,31.753-71.129
			h61.963c9.075,30.185,23.897,57.694,31.751,71.129C251.982,266.701,256.607,282.906,252.996,292.424z"/>
	</g>
</g>
</svg>