<?xml version="1.0" encoding="iso-8859-1"?>
<!-- Uploaded to: SVG Repo, www.svgrepo.com, Generator: SVG Repo Mixer Tools -->
<svg fill="#000000" height="800px" width="800px" version="1.1" id="Layer_1" xmlns="http://www.w3.org/2000/svg" xmlns:xlink="http://www.w3.org/1999/xlink" 
	 viewBox="0 0 512 512" xml:space="preserve">
<g>
	<g>
		<path d="M426.296,160.278l-36.73-48.974V97.302c19.433-6.892,33.391-25.45,33.391-47.215C422.957,22.469,400.487,0,372.87,0
			H139.13c-27.618,0-50.087,22.469-50.087,50.087c0,21.766,13.959,40.323,33.391,47.215v14.002l-36.73,48.974
			c-8.613,11.483-13.357,25.715-13.357,40.07v244.87c0,36.824,29.959,66.783,66.783,66.783H372.87
			c36.824,0,66.783-29.959,66.783-66.783v-244.87C439.652,185.993,434.908,171.762,426.296,160.278z M139.13,33.391H372.87
			c9.206,0,16.696,7.49,16.696,16.696s-7.49,16.696-16.696,16.696H139.13c-9.206,0-16.696-7.49-16.696-16.696
			S129.924,33.391,139.13,33.391z M406.261,445.217c0,18.412-14.979,33.391-33.391,33.391H139.13
			c-18.412,0-33.391-14.979-33.391-33.391v-244.87c0-7.177,2.372-14.293,6.678-20.035l40.07-53.426
			c2.167-2.891,3.339-6.406,3.339-10.017v-16.696h200.348v16.696c0,3.612,1.172,7.127,3.339,10.017l40.07,53.426
			c4.306,5.742,6.678,12.858,6.678,20.035V445.217z"/>
	</g>
</g>
<g>
	<g>
		<path d="M356.174,244.87H155.826c-9.22,0-16.696,7.475-16.696,16.696V395.13c0,9.22,7.475,16.696,16.696,16.696h200.348
			c9.22,0,16.696-7.475,16.696-16.696V261.565C372.87,252.345,365.394,244.87,356.174,244.87z M339.478,378.435H172.522V278.261
			h166.957V378.435z"/>
	</g>
</g>
</svg>