<?xml version="1.0" encoding="iso-8859-1"?>
<!-- Uploaded to: SVG Repo, www.svgrepo.com, Generator: SVG Repo Mixer Tools -->
<!DOCTYPE svg PUBLIC "-//W3C//DTD SVG 1.1//EN" "http://www.w3.org/Graphics/SVG/1.1/DTD/svg11.dtd">
<svg fill="#000000" version="1.1" id="Capa_1" xmlns="http://www.w3.org/2000/svg" xmlns:xlink="http://www.w3.org/1999/xlink" 
	 viewBox="0 0 50.04 50.04" xml:space="preserve">
<g>
	<path d="M9.619,11h30.786c1.709,0,3.1-1.391,3.1-3.1V3.1c0-1.709-1.391-3.1-3.1-3.1H9.619C7.91,0,6.52,1.391,6.52,3.1v4.802
		C6.52,9.61,7.91,11,9.619,11z"/>
	<path d="M27.52,23.915v15h16.951c0.025-0.318,0.049-0.637,0.049-0.962v-2.094H32.424v-8.921H44.52v-3.023H27.52z"/>
	<path d="M25.52,21.915h18.925c-0.344-3.176-1.819-4.901-2.933-6.201c-0.574-0.67-1.075-1.254-1.294-1.878V12H9.823v1.845
		c-0.222,0.616-0.719,1.195-1.288,1.859c-1.272,1.482-3.015,3.514-3.015,7.621v14.628c0,6.665,5.422,12.087,12.087,12.087h14.826
		c5.642,0,10.379-3.89,11.705-9.125H25.52V21.915z M15.308,17.902c-0.884,1.134-1.788,2.664-1.788,5.423v14.628c0,0.553-0.447,1-1,1
		s-1-0.447-1-1V23.325c0-3.384,1.182-5.333,2.212-6.653c0.339-0.436,0.967-0.514,1.403-0.173
		C15.571,16.838,15.648,17.467,15.308,17.902z"/>
	<rect x="34.424" y="28.938" width="10.096" height="4.921"/>
</g>
</svg>