<?xml version="1.0" encoding="iso-8859-1"?>
<!-- Uploaded to: SVG Repo, www.svgrepo.com, Generator: SVG Repo Mixer Tools -->
<!DOCTYPE svg PUBLIC "-//W3C//DTD SVG 1.1//EN" "http://www.w3.org/Graphics/SVG/1.1/DTD/svg11.dtd">
<svg fill="#000000" version="1.1" id="Capa_1" xmlns="http://www.w3.org/2000/svg" xmlns:xlink="http://www.w3.org/1999/xlink" 
	 width="800px" height="800px" viewBox="0 0 549.818 549.819"
	 xml:space="preserve">
<g>
	<path d="M543.221,295.752c-7.3-17.101-23.899-36.101-44.699-34.3c-19,1.8-30,19-35.5,36.7c-2.4-12.899-6.7-25.1-12.9-36.1
		c-3.1-4.9-8.6-6.1-13.5-4.3c-0.6-4.3-3.7-8-8-8.6c-58-9.1-121,0.7-179.799,3.7c-66.7,3.7-134,4.3-200.7,6.7c-6.7,0-9.8,8-7.3,12.9
		c-0.6,0.6-0.6,1.8-0.6,3.1c-5.5,58.8,12.9,107.7,45.3,144.399c-20.2,0.601-88.1,14.7-57.5,49.601c34.3,38.6,102.2,49,150.6,53.2
		c93,8,288.299,38.6,340.299-67.301c2.4-5.5,1.8-14.1-4.3-16.5c-26.9-11.6-53.9-17.699-82-18.399c4.9-6.101,9.2-12.2,12.9-19.601
		c34.3,0.601,71-6.1,92.399-34.899C552.421,345.852,553.021,317.152,543.221,295.752z M253.722,503.152
		c-36.7-1.2-74.7-3.1-110.8-9.2c-19.6-3.699-38.6-9.8-57.5-16.5c-13.5-4.899-26.9-11.6-37.9-20.199c-11.6-9.2,34.9-23.9,39.2-25.7
		c2.4-1.2,3.7-3.101,4.3-5.5c45.9,47.1,115.7,72.2,189.1,67.3c46.5-3.1,92.4-19.6,127.9-49.6c28.199-2.4,55.1,0.6,82,10.399
		C444.721,517.252,320.421,506.252,253.722,503.152z M403.121,411.352c-3.1,3.7-6.7,6.7-10.4,9.8c-0.6,0-0.6,0-1.199,0
		c-5.5,0.601-8,4.3-8.601,8c-31.2,23.9-72.8,34.9-110.799,37.3c-120.6,8.601-206.2-73.399-216-189.7c57.5,7.301,116.3,5.5,173.8,3.7
		c64.9-1.8,134.6,1.2,198.299-9.2c0.601,0,0.601,0,1.2-0.6C431.221,324.452,442.821,366.052,403.121,411.352z M518.121,352.652
		c-14.7,18.4-39.8,23.3-63,23.9c4.9-13.5,8-28.2,9.2-42.8c1.8-0.601,3.7-1.801,4.3-4.301c3.7-12.899,7.3-26.3,15.3-37.3
		c1.8-3.1,4.9-6.1,7.3-8c3.101-1.8,5.5-2.4,7.301-3.1c4.899,0,9.199,2.399,13.5,6.1c4.899,4.9,9.199,11.601,11,18.4
		C528.521,321.452,529.121,338.552,518.121,352.652z"/>
	<path d="M55.421,211.852c-11-33-3.1-62.4-2.4-96.1c0.6-24.5-15.9-50.8-41-54.5c-9.8-1.8-15.9,8.6-9.2,16.5
		c8.6,10.4,19.6,15.9,23.9,30c3.7,12.2,0.6,27.5,0,39.8c-1.8,25.1,1.2,49,14.1,71C45.021,226.552,58.521,221.052,55.421,211.852z"/>
	<path d="M120.921,54.552c-10.4-6.7-20.2,8-12.9,16.5c13.5,15.3,24.5,26.9,20.8,48.3c-2.4,12.2-7.3,23.9-11.6,35.5
		c-8.6,25.1-7.3,48.3,7.3,71c4.9,7.3,15.9,1.2,12.2-6.7c-15.9-35.5,8.6-64.9,15.9-98.5
		C157.622,92.552,143.021,68.052,120.921,54.552z"/>
	<path d="M236.622,32.552c-9.2-8.6-25.1,2.4-17.7,13.5c29.4,45.3-12.2,127.3-26.3,173.8c-1.8,6.7,7.3,10.4,11,4.9
		c17.7-26.9,29.4-56.3,38.6-87.5C251.322,107.852,263.521,57.052,236.622,32.552z"/>
	<path d="M351.021,25.852c0-11-14.7-12.2-18.4-2.4c-14.1,37.9-19,72.2-52,100.4c-4.899,4.3-3.7,11.6,0,15.9
		c11.6,14.7,30,37.3,13.5,57.5c-6.7,8-20.2,9.2-29.399,12.2c-4.9,1.8-6.1,9.8,0,11c16.499,3.1,38.6-1.2,48.999-16.5
		c15.9-24.5,5.5-49-9.8-70.4C332.721,105.952,351.021,64.952,351.021,25.852z"/>
	<path d="M448.321,33.752c-30.601,33-34.3,75.3-86.9,86.9c-6.7,1.2-10.399,10.4-6.7,16.5c18.4,26.9,36.7,52.6-1.199,71.6
		c-6.7,3.7-1.801,14.1,4.899,12.2c50.2-13.5,42.2-47.7,22.601-82.6c39.8-14.1,75.899-54.5,82.6-94.9
		C466.121,34.352,455.721,25.852,448.321,33.752z"/>
</g>
</svg>