<?xml version="1.0" encoding="iso-8859-1"?>
<!-- Uploaded to: SVG Repo, www.svgrepo.com, Generator: SVG Repo Mixer Tools -->
<svg fill="#000000" height="800px" width="800px" version="1.1" id="Layer_1" xmlns="http://www.w3.org/2000/svg" xmlns:xlink="http://www.w3.org/1999/xlink" 
	 viewBox="0 0 485.89 485.89" xml:space="preserve">
<g>
	<path d="M458.466,285.118c0-30.955-20.538-57.197-48.701-65.833c8.92-11.609,14.24-26.121,14.24-41.859
		c0-33.994-24.771-62.292-57.206-67.842C350.998,60.064,311.056,23.808,247.895,1.729L242.945,0l-4.95,1.729
		c-63.161,22.079-103.103,58.334-118.905,107.856c-32.435,5.549-57.205,33.848-57.205,67.841c0,15.738,5.32,30.25,14.24,41.859
		c-28.163,8.635-48.701,34.877-48.701,65.833c0,33.394,23.902,61.3,55.494,67.535l17.267,133.236h285.521l17.268-133.236
		C434.564,346.418,458.466,318.512,458.466,285.118z M242.945,31.829c46.943,17.363,77.082,42.609,91.527,76.752H151.418
		C165.864,74.438,196.003,49.192,242.945,31.829z M130.73,138.581h224.43c21.42,0,38.846,17.426,38.846,38.846
		s-17.426,38.846-38.846,38.846H130.73c-21.42,0-38.846-17.426-38.846-38.846S109.31,138.581,130.73,138.581z M126.547,455.89
		l-13.209-101.926h259.212L359.341,455.89H126.547z M389.621,323.964H96.269c-21.42,0-38.846-17.426-38.846-38.846
		s17.426-38.846,38.846-38.846h293.352c21.42,0,38.846,17.426,38.846,38.846S411.041,323.964,389.621,323.964z"/>
</g>
</svg>