<?xml version="1.0" encoding="utf-8"?>
<!-- Uploaded to: SVG Repo, www.svgrepo.com, Generator: SVG Repo Mixer Tools -->
<svg width="800px" height="800px" viewBox="-3 0 34 34" xmlns="http://www.w3.org/2000/svg">
  <g id="Frame_15" data-name="Frame 15" transform="translate(-14 -11)">
    <path id="Path_110" data-name="Path 110" d="M18.775,35l2.211,6.632A2,2,0,0,0,22.883,43H33.117a2,2,0,0,0,1.9-1.368L37.225,35Zm.313,7.265A4,4,0,0,0,22.883,45H33.117a4,4,0,0,0,3.795-2.735L40,33H16Z" fill="#2d2d2d" fill-rule="evenodd"/>
    <path id="Path_111" data-name="Path 111" d="M37.5,28h-19a2.5,2.5,0,0,0,0,5h19a2.5,2.5,0,0,0,0-5Zm-19-2a4.5,4.5,0,0,0,0,9h19a4.5,4.5,0,0,0,0-9Z" fill="#2d2d2d" fill-rule="evenodd"/>
    <path id="Path_112" data-name="Path 112" d="M35,22H21a2,2,0,0,0,0,4H35a2,2,0,0,0,0-4ZM21,20a4,4,0,0,0,0,8H35a4,4,0,0,0,0-8Z" fill="#2d2d2d" fill-rule="evenodd"/>
    <path id="Path_113" data-name="Path 113" d="M29.226,13.021a4.186,4.186,0,0,1-1.2,3.632,16.928,16.928,0,0,1-3.544,2.98c-.009.006-.021.014-.031.05a.367.367,0,0,0,0,.189.3.3,0,0,0,.063.129h6.832a4.115,4.115,0,0,0,1.642-3.237,3.863,3.863,0,0,0-1.47-2.553A5.168,5.168,0,0,0,29.226,13.021Zm5.762,3.6c.12,1.7-.677,3.462-2.6,5.132L32.11,22h-7.6a2.081,2.081,0,0,1-1.994-1.631,2.2,2.2,0,0,1,.865-2.405,15.015,15.015,0,0,0,3.117-2.6c.772-.916.9-1.535.767-1.922a1.8,1.8,0,0,1,.374-1.971,2.159,2.159,0,0,1,1.735-.448,6.961,6.961,0,0,1,3.453,1.671A5.843,5.843,0,0,1,34.988,16.622Z" fill="#2d2d2d" fill-rule="evenodd"/>
  </g>
</svg>