<?xml version="1.0" encoding="utf-8"?><!-- Uploaded to: SVG Repo, www.svgrepo.com, Generator: SVG Repo Mixer Tools -->
<svg width="800px" height="800px" viewBox="0 0 48 48" fill="none" xmlns="http://www.w3.org/2000/svg">
<path d="M14.5263 17H7C5.34315 17 4 18.3431 4 20V40C4 41.6569 5.34315 43 7 43H41C42.6569 43 44 41.6569 44 40V20C44 18.3431 42.6569 17 41 17H33.4737" stroke="#000000" stroke-width="4" stroke-linejoin="round"/>
<path d="M33 17C33 19.7614 28.9706 22 24 22C19.0294 22 15 19.7614 15 17" stroke="#000000" stroke-width="4" stroke-linecap="round" stroke-linejoin="round"/>
<ellipse cx="24" cy="10" rx="9" ry="5" stroke="#000000" stroke-width="4" stroke-linecap="round" stroke-linejoin="round"/>
<path d="M33 17V10" stroke="#000000" stroke-width="4" stroke-linecap="round" stroke-linejoin="round"/>
<path d="M15 17V10" stroke="#000000" stroke-width="4" stroke-linecap="round" stroke-linejoin="round"/>
<ellipse cx="27" cy="10" rx="2" ry="1" fill="#000000"/>
<ellipse cx="21" cy="10" rx="2" ry="1" fill="#000000"/>
</svg>